<svg xmlns="http://www.w3.org/2000/svg" xmlns:xlink="http://www.w3.org/1999/xlink" width="1920" zoomAndPan="magnify" viewBox="0 0 1440 809.999993" height="1080" preserveAspectRatio="xMidYMid meet" version="1.0"><defs><g/><clipPath id="ec9ce38759"><rect x="0" width="159" y="0" height="6"/></clipPath><clipPath id="9c92d52296"><path d="M 0.359375 0.359375 L 767.398438 0.359375 L 767.398438 767.398438 L 0.359375 767.398438 Z M 0.359375 0.359375 " clip-rule="nonzero"/></clipPath><clipPath id="0bc2b5490d"><path d="M 0.417969 0.375 L 767.285156 0.375 L 767.285156 767.242188 L 0.417969 767.242188 Z M 0.417969 0.375 " clip-rule="nonzero"/></clipPath><clipPath id="f2fca41b6f"><path d="M 383.851562 0.375 C 386.746094 0.375 391.085938 3.269531 396.875 11.953125 C 402.664062 22.078125 407.003906 35.101562 412.792969 52.464844 C 421.472656 87.191406 427.261719 134.9375 427.261719 188.476562 C 427.261719 218.859375 424.367188 246.351562 421.472656 272.398438 L 418.578125 301.335938 L 435.941406 278.183594 C 451.859375 257.925781 470.667969 236.222656 492.371094 215.96875 C 529.992188 176.898438 567.613281 147.960938 597.996094 129.152344 C 613.914062 120.46875 626.933594 114.683594 637.0625 111.789062 C 647.191406 110.34375 651.53125 110.34375 652.980469 113.234375 L 654.425781 113.234375 C 655.875 114.683594 657.320312 120.46875 655.875 130.597656 C 652.980469 140.726562 647.191406 153.75 638.511719 169.664062 C 621.148438 198.605469 593.65625 233.328125 558.929688 269.503906 L 551.695312 275.289062 C 531.4375 296.996094 509.734375 315.804688 489.476562 331.71875 L 466.328125 349.082031 L 495.265625 346.1875 C 521.308594 343.296875 548.800781 340.402344 579.1875 340.402344 C 632.722656 340.402344 680.472656 346.1875 715.195312 354.871094 C 732.558594 360.660156 745.582031 365 755.710938 370.785156 C 764.390625 376.574219 767.285156 380.914062 767.285156 383.808594 C 767.285156 386.703125 764.390625 391.042969 755.710938 396.832031 C 745.582031 402.621094 732.558594 406.960938 715.195312 412.746094 C 680.472656 421.429688 632.722656 427.214844 579.1875 427.214844 C 548.800781 427.214844 521.308594 424.324219 495.265625 421.429688 L 466.328125 418.535156 L 489.476562 435.898438 C 509.734375 451.8125 531.4375 470.625 551.695312 492.328125 C 590.761719 529.949219 619.699219 567.566406 638.511719 597.953125 C 647.191406 613.867188 652.980469 626.890625 655.875 637.019531 C 657.320312 647.148438 655.875 652.9375 654.425781 654.382812 C 652.980469 655.828125 647.191406 657.277344 637.0625 655.828125 C 626.933594 652.9375 613.914062 647.148438 597.996094 638.464844 C 567.613281 619.65625 529.992188 590.71875 492.371094 551.652344 C 470.667969 531.394531 451.859375 509.691406 435.941406 489.433594 L 418.578125 466.285156 L 421.472656 495.222656 C 424.367188 521.265625 427.261719 548.757812 427.261719 579.144531 C 427.261719 632.679688 421.472656 680.425781 412.792969 715.152344 C 407.003906 732.515625 402.664062 745.539062 396.875 755.667969 C 391.085938 764.347656 386.746094 767.242188 383.851562 767.242188 C 380.960938 767.242188 376.617188 764.347656 370.832031 755.667969 C 365.042969 745.539062 360.703125 732.515625 354.914062 715.152344 C 346.234375 680.425781 340.445312 632.679688 340.445312 579.144531 C 340.445312 548.757812 343.339844 521.265625 346.234375 495.222656 L 349.128906 466.285156 L 331.765625 489.433594 C 318.742188 506.796875 301.378906 525.605469 284.015625 544.417969 L 275.335938 551.652344 C 237.714844 590.71875 200.09375 619.65625 169.710938 638.464844 C 153.792969 647.148438 140.769531 652.9375 130.640625 655.828125 C 120.515625 657.277344 116.171875 657.277344 114.726562 655.828125 L 113.28125 654.382812 C 111.832031 652.9375 110.386719 647.148438 111.832031 637.019531 C 114.726562 626.890625 120.515625 613.867188 129.195312 597.953125 C 146.558594 569.015625 174.050781 534.289062 208.777344 498.117188 L 216.011719 492.328125 C 236.265625 470.625 257.972656 451.8125 278.226562 435.898438 L 301.378906 418.535156 L 272.441406 421.429688 C 246.394531 424.324219 218.90625 427.214844 188.519531 427.214844 C 134.984375 427.214844 87.234375 421.429688 52.507812 412.746094 C 35.144531 406.960938 22.125 402.621094 11.996094 396.832031 C 3.3125 391.042969 0.417969 386.703125 0.417969 383.808594 C 0.417969 380.914062 3.3125 376.574219 11.996094 370.785156 C 22.125 365 35.144531 360.660156 52.507812 354.871094 C 87.234375 346.1875 134.984375 340.402344 188.519531 340.402344 C 218.90625 340.402344 246.394531 343.296875 272.441406 346.1875 L 301.378906 349.082031 L 278.226562 331.71875 C 257.972656 315.804688 236.265625 296.996094 216.011719 275.289062 C 176.945312 237.671875 148.003906 200.050781 129.195312 169.664062 C 120.515625 153.75 114.726562 140.726562 111.832031 130.597656 C 110.386719 120.46875 111.832031 114.683594 113.28125 113.234375 C 114.726562 111.789062 120.515625 108.894531 130.640625 111.789062 C 140.769531 114.683594 153.792969 120.46875 169.710938 129.152344 C 198.648438 146.515625 233.375 174.007812 269.546875 208.730469 L 275.335938 215.96875 C 297.039062 236.222656 315.847656 257.925781 331.765625 278.183594 L 349.128906 301.335938 L 346.234375 272.398438 C 343.339844 246.351562 340.445312 218.859375 340.445312 188.476562 C 340.445312 134.9375 346.234375 87.191406 354.914062 52.464844 C 360.703125 35.101562 365.042969 22.078125 370.832031 11.953125 C 376.617188 3.269531 380.960938 0.375 383.851562 0.375 Z M 383.851562 0.375 " clip-rule="nonzero"/></clipPath><clipPath id="7fd0b40f5e"><path d="M 0.417969 0.375 L 767.285156 0.375 L 767.285156 767.242188 L 0.417969 767.242188 Z M 0.417969 0.375 " clip-rule="nonzero"/></clipPath><clipPath id="194d9674e6"><path d="M 383.851562 0.375 C 386.746094 0.375 391.085938 3.269531 396.875 11.953125 C 402.664062 22.078125 407.003906 35.101562 412.792969 52.464844 C 421.472656 87.191406 427.261719 134.9375 427.261719 188.476562 C 427.261719 218.859375 424.367188 246.351562 421.472656 272.398438 L 418.578125 301.335938 L 435.941406 278.183594 C 451.859375 257.925781 470.667969 236.222656 492.371094 215.96875 C 529.992188 176.898438 567.613281 147.960938 597.996094 129.152344 C 613.914062 120.46875 626.933594 114.683594 637.0625 111.789062 C 647.191406 110.34375 651.53125 110.34375 652.980469 113.234375 L 654.425781 113.234375 C 655.875 114.683594 657.320312 120.46875 655.875 130.597656 C 652.980469 140.726562 647.191406 153.75 638.511719 169.664062 C 621.148438 198.605469 593.65625 233.328125 558.929688 269.503906 L 551.695312 275.289062 C 531.4375 296.996094 509.734375 315.804688 489.476562 331.71875 L 466.328125 349.082031 L 495.265625 346.1875 C 521.308594 343.296875 548.800781 340.402344 579.1875 340.402344 C 632.722656 340.402344 680.472656 346.1875 715.195312 354.871094 C 732.558594 360.660156 745.582031 365 755.710938 370.785156 C 764.390625 376.574219 767.285156 380.914062 767.285156 383.808594 C 767.285156 386.703125 764.390625 391.042969 755.710938 396.832031 C 745.582031 402.621094 732.558594 406.960938 715.195312 412.746094 C 680.472656 421.429688 632.722656 427.214844 579.1875 427.214844 C 548.800781 427.214844 521.308594 424.324219 495.265625 421.429688 L 466.328125 418.535156 L 489.476562 435.898438 C 509.734375 451.8125 531.4375 470.625 551.695312 492.328125 C 590.761719 529.949219 619.699219 567.566406 638.511719 597.953125 C 647.191406 613.867188 652.980469 626.890625 655.875 637.019531 C 657.320312 647.148438 655.875 652.9375 654.425781 654.382812 C 652.980469 655.828125 647.191406 657.277344 637.0625 655.828125 C 626.933594 652.9375 613.914062 647.148438 597.996094 638.464844 C 567.613281 619.65625 529.992188 590.71875 492.371094 551.652344 C 470.667969 531.394531 451.859375 509.691406 435.941406 489.433594 L 418.578125 466.285156 L 421.472656 495.222656 C 424.367188 521.265625 427.261719 548.757812 427.261719 579.144531 C 427.261719 632.679688 421.472656 680.425781 412.792969 715.152344 C 407.003906 732.515625 402.664062 745.539062 396.875 755.667969 C 391.085938 764.347656 386.746094 767.242188 383.851562 767.242188 C 380.960938 767.242188 376.617188 764.347656 370.832031 755.667969 C 365.042969 745.539062 360.703125 732.515625 354.914062 715.152344 C 346.234375 680.425781 340.445312 632.679688 340.445312 579.144531 C 340.445312 548.757812 343.339844 521.265625 346.234375 495.222656 L 349.128906 466.285156 L 331.765625 489.433594 C 318.742188 506.796875 301.378906 525.605469 284.015625 544.417969 L 275.335938 551.652344 C 237.714844 590.71875 200.09375 619.65625 169.710938 638.464844 C 153.792969 647.148438 140.769531 652.9375 130.640625 655.828125 C 120.515625 657.277344 116.171875 657.277344 114.726562 655.828125 L 113.28125 654.382812 C 111.832031 652.9375 110.386719 647.148438 111.832031 637.019531 C 114.726562 626.890625 120.515625 613.867188 129.195312 597.953125 C 146.558594 569.015625 174.050781 534.289062 208.777344 498.117188 L 216.011719 492.328125 C 236.265625 470.625 257.972656 451.8125 278.226562 435.898438 L 301.378906 418.535156 L 272.441406 421.429688 C 246.394531 424.324219 218.90625 427.214844 188.519531 427.214844 C 134.984375 427.214844 87.234375 421.429688 52.507812 412.746094 C 35.144531 406.960938 22.125 402.621094 11.996094 396.832031 C 3.3125 391.042969 0.417969 386.703125 0.417969 383.808594 C 0.417969 380.914062 3.3125 376.574219 11.996094 370.785156 C 22.125 365 35.144531 360.660156 52.507812 354.871094 C 87.234375 346.1875 134.984375 340.402344 188.519531 340.402344 C 218.90625 340.402344 246.394531 343.296875 272.441406 346.1875 L 301.378906 349.082031 L 278.226562 331.71875 C 257.972656 315.804688 236.265625 296.996094 216.011719 275.289062 C 176.945312 237.671875 148.003906 200.050781 129.195312 169.664062 C 120.515625 153.75 114.726562 140.726562 111.832031 130.597656 C 110.386719 120.46875 111.832031 114.683594 113.28125 113.234375 C 114.726562 111.789062 120.515625 108.894531 130.640625 111.789062 C 140.769531 114.683594 153.792969 120.46875 169.710938 129.152344 C 198.648438 146.515625 233.375 174.007812 269.546875 208.730469 L 275.335938 215.96875 C 297.039062 236.222656 315.847656 257.925781 331.765625 278.183594 L 349.128906 301.335938 L 346.234375 272.398438 C 343.339844 246.351562 340.445312 218.859375 340.445312 188.476562 C 340.445312 134.9375 346.234375 87.191406 354.914062 52.464844 C 360.703125 35.101562 365.042969 22.078125 370.832031 11.953125 C 376.617188 3.269531 380.960938 0.375 383.851562 0.375 Z M 383.851562 0.375 " clip-rule="nonzero"/></clipPath><linearGradient x1="0.000000000000014211" gradientTransform="matrix(2.995571, 0, 0, 2.995571, 0.419841, 0.376094)" y1="128" x2="256" gradientUnits="userSpaceOnUse" y2="128" id="6780f24778"><stop stop-opacity="1" stop-color="rgb(100%, 61.959839%, 31.369019%)" offset="0"/><stop stop-opacity="1" stop-color="rgb(99.931335%, 61.793518%, 31.25%)" offset="0.015625"/><stop stop-opacity="1" stop-color="rgb(99.797058%, 61.462402%, 31.010437%)" offset="0.03125"/><stop stop-opacity="1" stop-color="rgb(99.661255%, 61.131287%, 30.770874%)" offset="0.046875"/><stop stop-opacity="1" stop-color="rgb(99.526978%, 60.800171%, 30.532837%)" offset="0.0625"/><stop stop-opacity="1" stop-color="rgb(99.3927%, 60.469055%, 30.293274%)" offset="0.078125"/><stop stop-opacity="1" stop-color="rgb(99.256897%, 60.137939%, 30.055237%)" offset="0.09375"/><stop stop-opacity="1" stop-color="rgb(99.12262%, 59.806824%, 29.815674%)" offset="0.109375"/><stop stop-opacity="1" stop-color="rgb(98.988342%, 59.477234%, 29.577637%)" offset="0.125"/><stop stop-opacity="1" stop-color="rgb(98.852539%, 59.146118%, 29.338074%)" offset="0.140625"/><stop stop-opacity="1" stop-color="rgb(98.718262%, 58.815002%, 29.098511%)" offset="0.15625"/><stop stop-opacity="1" stop-color="rgb(98.582458%, 58.483887%, 28.860474%)" offset="0.171875"/><stop stop-opacity="1" stop-color="rgb(98.448181%, 58.152771%, 28.620911%)" offset="0.1875"/><stop stop-opacity="1" stop-color="rgb(98.313904%, 57.821655%, 28.382874%)" offset="0.203125"/><stop stop-opacity="1" stop-color="rgb(98.178101%, 57.49054%, 28.143311%)" offset="0.21875"/><stop stop-opacity="1" stop-color="rgb(98.043823%, 57.159424%, 27.905273%)" offset="0.234375"/><stop stop-opacity="1" stop-color="rgb(97.909546%, 56.828308%, 27.66571%)" offset="0.25"/><stop stop-opacity="1" stop-color="rgb(97.773743%, 56.498718%, 27.426147%)" offset="0.265625"/><stop stop-opacity="1" stop-color="rgb(97.639465%, 56.167603%, 27.18811%)" offset="0.28125"/><stop stop-opacity="1" stop-color="rgb(97.503662%, 55.836487%, 26.948547%)" offset="0.296875"/><stop stop-opacity="1" stop-color="rgb(97.369385%, 55.505371%, 26.71051%)" offset="0.3125"/><stop stop-opacity="1" stop-color="rgb(97.235107%, 55.174255%, 26.470947%)" offset="0.328125"/><stop stop-opacity="1" stop-color="rgb(97.099304%, 54.84314%, 26.23291%)" offset="0.34375"/><stop stop-opacity="1" stop-color="rgb(96.965027%, 54.512024%, 25.993347%)" offset="0.359375"/><stop stop-opacity="1" stop-color="rgb(96.83075%, 54.180908%, 25.753784%)" offset="0.375"/><stop stop-opacity="1" stop-color="rgb(96.694946%, 53.851318%, 25.515747%)" offset="0.390625"/><stop stop-opacity="1" stop-color="rgb(96.560669%, 53.520203%, 25.276184%)" offset="0.40625"/><stop stop-opacity="1" stop-color="rgb(96.424866%, 53.189087%, 25.038147%)" offset="0.421875"/><stop stop-opacity="1" stop-color="rgb(96.290588%, 52.857971%, 24.798584%)" offset="0.4375"/><stop stop-opacity="1" stop-color="rgb(96.156311%, 52.526855%, 24.560547%)" offset="0.453125"/><stop stop-opacity="1" stop-color="rgb(96.020508%, 52.19574%, 24.320984%)" offset="0.46875"/><stop stop-opacity="1" stop-color="rgb(95.88623%, 51.864624%, 24.081421%)" offset="0.484375"/><stop stop-opacity="1" stop-color="rgb(95.751953%, 51.533508%, 23.843384%)" offset="0.5"/><stop stop-opacity="1" stop-color="rgb(95.61615%, 51.202393%, 23.603821%)" offset="0.515625"/><stop stop-opacity="1" stop-color="rgb(95.481873%, 50.872803%, 23.365784%)" offset="0.53125"/><stop stop-opacity="1" stop-color="rgb(95.347595%, 50.541687%, 23.126221%)" offset="0.546875"/><stop stop-opacity="1" stop-color="rgb(95.211792%, 50.210571%, 22.888184%)" offset="0.5625"/><stop stop-opacity="1" stop-color="rgb(95.077515%, 49.879456%, 22.648621%)" offset="0.578125"/><stop stop-opacity="1" stop-color="rgb(94.941711%, 49.54834%, 22.409058%)" offset="0.59375"/><stop stop-opacity="1" stop-color="rgb(94.807434%, 49.217224%, 22.171021%)" offset="0.609375"/><stop stop-opacity="1" stop-color="rgb(94.673157%, 48.886108%, 21.931458%)" offset="0.625"/><stop stop-opacity="1" stop-color="rgb(94.537354%, 48.554993%, 21.69342%)" offset="0.640625"/><stop stop-opacity="1" stop-color="rgb(94.403076%, 48.225403%, 21.453857%)" offset="0.65625"/><stop stop-opacity="1" stop-color="rgb(94.268799%, 47.894287%, 21.21582%)" offset="0.671875"/><stop stop-opacity="1" stop-color="rgb(94.132996%, 47.563171%, 20.976257%)" offset="0.6875"/><stop stop-opacity="1" stop-color="rgb(93.998718%, 47.232056%, 20.73822%)" offset="0.703125"/><stop stop-opacity="1" stop-color="rgb(93.862915%, 46.90094%, 20.498657%)" offset="0.71875"/><stop stop-opacity="1" stop-color="rgb(93.728638%, 46.569824%, 20.259094%)" offset="0.734375"/><stop stop-opacity="1" stop-color="rgb(93.59436%, 46.238708%, 20.021057%)" offset="0.75"/><stop stop-opacity="1" stop-color="rgb(93.458557%, 45.907593%, 19.781494%)" offset="0.765625"/><stop stop-opacity="1" stop-color="rgb(93.32428%, 45.576477%, 19.543457%)" offset="0.78125"/><stop stop-opacity="1" stop-color="rgb(93.190002%, 45.246887%, 19.303894%)" offset="0.796875"/><stop stop-opacity="1" stop-color="rgb(93.054199%, 44.915771%, 19.065857%)" offset="0.8125"/><stop stop-opacity="1" stop-color="rgb(92.919922%, 44.584656%, 18.826294%)" offset="0.828125"/><stop stop-opacity="1" stop-color="rgb(92.784119%, 44.25354%, 18.586731%)" offset="0.84375"/><stop stop-opacity="1" stop-color="rgb(92.649841%, 43.922424%, 18.348694%)" offset="0.859375"/><stop stop-opacity="1" stop-color="rgb(92.515564%, 43.591309%, 18.109131%)" offset="0.875"/><stop stop-opacity="1" stop-color="rgb(92.379761%, 43.260193%, 17.871094%)" offset="0.890625"/><stop stop-opacity="1" stop-color="rgb(92.245483%, 42.929077%, 17.631531%)" offset="0.90625"/><stop stop-opacity="1" stop-color="rgb(92.111206%, 42.597961%, 17.393494%)" offset="0.921875"/><stop stop-opacity="1" stop-color="rgb(91.975403%, 42.268372%, 17.153931%)" offset="0.9375"/><stop stop-opacity="1" stop-color="rgb(91.841125%, 41.937256%, 16.914368%)" offset="0.953125"/><stop stop-opacity="1" stop-color="rgb(91.705322%, 41.60614%, 16.676331%)" offset="0.96875"/><stop stop-opacity="1" stop-color="rgb(91.571045%, 41.275024%, 16.436768%)" offset="0.984375"/><stop stop-opacity="1" stop-color="rgb(91.436768%, 40.943909%, 16.19873%)" offset="1"/></linearGradient><clipPath id="2512e0b267"><rect x="0" width="768" y="0" height="768"/></clipPath><clipPath id="8aeb65030e"><rect x="0" width="768" y="0" height="768"/></clipPath><clipPath id="520fe85db4"><rect x="0" width="768" y="0" height="768"/></clipPath></defs><g transform="matrix(1, 0, 0, 1, 363, 21)"><g clip-path="url(#520fe85db4)"><g transform="matrix(1, 0, 0, 1, 277, 489)"><g clip-path="url(#ec9ce38759)"><g fill="#000000" fill-opacity="1"><g transform="translate(1.029399, 4.11859)"><g><path d="M 1.71875 -0.1875 L 0.203125 -0.875 L 0.203125 -1.203125 L 1.71875 -1.890625 L 1.71875 -1.625 L 0.5 -1.046875 L 0.5 -1.03125 L 1.71875 -0.453125 Z M 1.71875 -0.1875 "/></g></g></g><g fill="#000000" fill-opacity="1"><g transform="translate(2.961787, 4.11859)"><g><path d="M 0.234375 -2.078125 L 0.234375 -2.421875 L 0.5 -2.421875 L 0.5 -2.078125 Z M 0.234375 0 L 0.234375 -1.75 L 0.5 -1.75 L 0.5 0 Z M 0.234375 0 "/></g></g></g><g fill="#000000" fill-opacity="1"><g transform="translate(3.662277, 4.11859)"><g><path d="M 0.234375 0 L 0.234375 -1.75 L 2.640625 -1.75 L 2.640625 0 L 2.375 0 L 2.375 -1.5 L 1.5625 -1.5 L 1.5625 0 L 1.3125 0 L 1.3125 -1.5 L 0.5 -1.5 L 0.5 0 Z M 0.234375 0 "/></g></g></g><g fill="#000000" fill-opacity="1"><g transform="translate(6.457341, 4.11859)"><g><path d="M 0.453125 0.546875 L 0.453125 0.296875 L 1.5625 0.296875 L 1.5625 -0.453125 C 1.53125 -0.390625 1.476562 -0.332031 1.40625 -0.28125 C 1.34375 -0.238281 1.269531 -0.207031 1.1875 -0.1875 C 1.113281 -0.164062 1.039062 -0.15625 0.96875 -0.15625 C 0.78125 -0.15625 0.628906 -0.191406 0.515625 -0.265625 C 0.398438 -0.335938 0.3125 -0.429688 0.25 -0.546875 C 0.195312 -0.671875 0.171875 -0.804688 0.171875 -0.953125 C 0.171875 -1.097656 0.195312 -1.234375 0.25 -1.359375 C 0.3125 -1.484375 0.398438 -1.578125 0.515625 -1.640625 C 0.628906 -1.710938 0.78125 -1.75 0.96875 -1.75 C 1.039062 -1.75 1.113281 -1.738281 1.1875 -1.71875 C 1.269531 -1.695312 1.34375 -1.664062 1.40625 -1.625 C 1.476562 -1.582031 1.53125 -1.523438 1.5625 -1.453125 L 1.5625 -1.75 L 1.8125 -1.75 L 1.8125 0.546875 Z M 1 -0.40625 C 1.0625 -0.40625 1.125 -0.410156 1.1875 -0.421875 C 1.257812 -0.441406 1.320312 -0.46875 1.375 -0.5 C 1.4375 -0.539062 1.484375 -0.597656 1.515625 -0.671875 C 1.546875 -0.742188 1.5625 -0.835938 1.5625 -0.953125 C 1.5625 -1.066406 1.546875 -1.160156 1.515625 -1.234375 C 1.484375 -1.304688 1.4375 -1.359375 1.375 -1.390625 C 1.320312 -1.429688 1.257812 -1.457031 1.1875 -1.46875 C 1.125 -1.488281 1.0625 -1.5 1 -1.5 C 0.90625 -1.5 0.8125 -1.484375 0.71875 -1.453125 C 0.632812 -1.429688 0.5625 -1.378906 0.5 -1.296875 C 0.445312 -1.222656 0.421875 -1.109375 0.421875 -0.953125 C 0.421875 -0.804688 0.445312 -0.691406 0.5 -0.609375 C 0.5625 -0.535156 0.632812 -0.484375 0.71875 -0.453125 C 0.8125 -0.421875 0.90625 -0.40625 1 -0.40625 Z M 1 -0.40625 "/></g></g></g><g fill="#000000" fill-opacity="1"><g transform="translate(8.517404, 4.11859)"><g/></g></g><g fill="#000000" fill-opacity="1"><g transform="translate(9.828668, 4.11859)"><g><path d="M 0.984375 0 C 0.796875 0 0.644531 -0.0351562 0.53125 -0.109375 C 0.414062 -0.191406 0.328125 -0.296875 0.265625 -0.421875 C 0.203125 -0.554688 0.171875 -0.707031 0.171875 -0.875 C 0.171875 -1.039062 0.203125 -1.191406 0.265625 -1.328125 C 0.328125 -1.460938 0.414062 -1.566406 0.53125 -1.640625 C 0.644531 -1.710938 0.796875 -1.75 0.984375 -1.75 C 1.128906 -1.75 1.253906 -1.71875 1.359375 -1.65625 C 1.472656 -1.59375 1.5625 -1.507812 1.625 -1.40625 C 1.6875 -1.300781 1.71875 -1.1875 1.71875 -1.0625 L 1.46875 -1.0625 C 1.457031 -1.207031 1.40625 -1.316406 1.3125 -1.390625 C 1.21875 -1.460938 1.109375 -1.5 0.984375 -1.5 C 0.878906 -1.5 0.785156 -1.476562 0.703125 -1.4375 C 0.617188 -1.40625 0.550781 -1.34375 0.5 -1.25 C 0.445312 -1.15625 0.421875 -1.03125 0.421875 -0.875 C 0.421875 -0.71875 0.445312 -0.59375 0.5 -0.5 C 0.550781 -0.414062 0.617188 -0.351562 0.703125 -0.3125 C 0.785156 -0.269531 0.878906 -0.25 0.984375 -0.25 C 1.109375 -0.25 1.21875 -0.285156 1.3125 -0.359375 C 1.40625 -0.429688 1.457031 -0.539062 1.46875 -0.6875 L 1.71875 -0.6875 C 1.71875 -0.5625 1.6875 -0.445312 1.625 -0.34375 C 1.5625 -0.238281 1.472656 -0.15625 1.359375 -0.09375 C 1.253906 -0.03125 1.128906 0 0.984375 0 Z M 0.984375 0 "/></g></g></g><g fill="#000000" fill-opacity="1"><g transform="translate(11.681692, 4.11859)"><g><path d="M 0.234375 0 L 0.234375 -2.421875 L 0.5 -2.421875 L 0.5 0 Z M 0.234375 0 "/></g></g></g><g fill="#000000" fill-opacity="1"><g transform="translate(12.337324, 4.11859)"><g><path d="M 0.828125 0 C 0.679688 0 0.554688 -0.0234375 0.453125 -0.078125 C 0.359375 -0.128906 0.285156 -0.203125 0.234375 -0.296875 C 0.191406 -0.390625 0.171875 -0.488281 0.171875 -0.59375 C 0.171875 -0.707031 0.191406 -0.804688 0.234375 -0.890625 C 0.285156 -0.984375 0.359375 -1.054688 0.453125 -1.109375 C 0.554688 -1.171875 0.679688 -1.203125 0.828125 -1.203125 C 0.960938 -1.203125 1.078125 -1.175781 1.171875 -1.125 C 1.265625 -1.070312 1.332031 -1.015625 1.375 -0.953125 L 1.375 -1.5 L 0.390625 -1.5 L 0.390625 -1.75 L 1.625 -1.75 L 1.625 -0.25 L 1.890625 -0.25 L 1.890625 0 L 1.375 0 L 1.375 -0.25 C 1.332031 -0.1875 1.265625 -0.128906 1.171875 -0.078125 C 1.078125 -0.0234375 0.960938 0 0.828125 0 Z M 0.890625 -0.234375 C 1.035156 -0.234375 1.148438 -0.257812 1.234375 -0.3125 C 1.328125 -0.375 1.375 -0.46875 1.375 -0.59375 C 1.375 -0.71875 1.328125 -0.8125 1.234375 -0.875 C 1.148438 -0.9375 1.035156 -0.96875 0.890625 -0.96875 C 0.734375 -0.96875 0.613281 -0.9375 0.53125 -0.875 C 0.457031 -0.8125 0.421875 -0.71875 0.421875 -0.59375 C 0.421875 -0.46875 0.457031 -0.375 0.53125 -0.3125 C 0.613281 -0.257812 0.734375 -0.234375 0.890625 -0.234375 Z M 0.890625 -0.234375 "/></g></g></g><g fill="#000000" fill-opacity="1"><g transform="translate(14.276614, 4.11859)"><g><path d="M 0.921875 0 C 0.785156 0 0.660156 -0.015625 0.546875 -0.046875 C 0.441406 -0.078125 0.328125 -0.125 0.203125 -0.1875 L 0.203125 -0.453125 C 0.328125 -0.390625 0.445312 -0.335938 0.5625 -0.296875 C 0.6875 -0.265625 0.8125 -0.25 0.9375 -0.25 C 1.050781 -0.25 1.144531 -0.265625 1.21875 -0.296875 C 1.289062 -0.335938 1.328125 -0.40625 1.328125 -0.5 C 1.328125 -0.5625 1.3125 -0.609375 1.28125 -0.640625 C 1.25 -0.671875 1.203125 -0.695312 1.140625 -0.71875 C 1.078125 -0.738281 0.992188 -0.765625 0.890625 -0.796875 C 0.722656 -0.835938 0.59375 -0.878906 0.5 -0.921875 C 0.40625 -0.960938 0.335938 -1.015625 0.296875 -1.078125 C 0.265625 -1.140625 0.25 -1.21875 0.25 -1.3125 C 0.25 -1.457031 0.300781 -1.566406 0.40625 -1.640625 C 0.519531 -1.710938 0.671875 -1.75 0.859375 -1.75 C 0.960938 -1.75 1.066406 -1.738281 1.171875 -1.71875 C 1.285156 -1.695312 1.390625 -1.660156 1.484375 -1.609375 L 1.484375 -1.359375 C 1.378906 -1.398438 1.269531 -1.429688 1.15625 -1.453125 C 1.050781 -1.484375 0.953125 -1.5 0.859375 -1.5 C 0.742188 -1.5 0.65625 -1.484375 0.59375 -1.453125 C 0.53125 -1.421875 0.5 -1.367188 0.5 -1.296875 C 0.5 -1.210938 0.53125 -1.148438 0.59375 -1.109375 C 0.65625 -1.078125 0.765625 -1.039062 0.921875 -1 C 1.097656 -0.957031 1.234375 -0.910156 1.328125 -0.859375 C 1.421875 -0.816406 1.484375 -0.765625 1.515625 -0.703125 C 1.554688 -0.640625 1.578125 -0.566406 1.578125 -0.484375 C 1.578125 -0.367188 1.546875 -0.273438 1.484375 -0.203125 C 1.429688 -0.128906 1.351562 -0.078125 1.25 -0.046875 C 1.144531 -0.015625 1.035156 0 0.921875 0 Z M 0.921875 0 "/></g></g></g><g fill="#000000" fill-opacity="1"><g transform="translate(15.953651, 4.11859)"><g><path d="M 0.921875 0 C 0.785156 0 0.660156 -0.015625 0.546875 -0.046875 C 0.441406 -0.078125 0.328125 -0.125 0.203125 -0.1875 L 0.203125 -0.453125 C 0.328125 -0.390625 0.445312 -0.335938 0.5625 -0.296875 C 0.6875 -0.265625 0.8125 -0.25 0.9375 -0.25 C 1.050781 -0.25 1.144531 -0.265625 1.21875 -0.296875 C 1.289062 -0.335938 1.328125 -0.40625 1.328125 -0.5 C 1.328125 -0.5625 1.3125 -0.609375 1.28125 -0.640625 C 1.25 -0.671875 1.203125 -0.695312 1.140625 -0.71875 C 1.078125 -0.738281 0.992188 -0.765625 0.890625 -0.796875 C 0.722656 -0.835938 0.59375 -0.878906 0.5 -0.921875 C 0.40625 -0.960938 0.335938 -1.015625 0.296875 -1.078125 C 0.265625 -1.140625 0.25 -1.21875 0.25 -1.3125 C 0.25 -1.457031 0.300781 -1.566406 0.40625 -1.640625 C 0.519531 -1.710938 0.671875 -1.75 0.859375 -1.75 C 0.960938 -1.75 1.066406 -1.738281 1.171875 -1.71875 C 1.285156 -1.695312 1.390625 -1.660156 1.484375 -1.609375 L 1.484375 -1.359375 C 1.378906 -1.398438 1.269531 -1.429688 1.15625 -1.453125 C 1.050781 -1.484375 0.953125 -1.5 0.859375 -1.5 C 0.742188 -1.5 0.65625 -1.484375 0.59375 -1.453125 C 0.53125 -1.421875 0.5 -1.367188 0.5 -1.296875 C 0.5 -1.210938 0.53125 -1.148438 0.59375 -1.109375 C 0.65625 -1.078125 0.765625 -1.039062 0.921875 -1 C 1.097656 -0.957031 1.234375 -0.910156 1.328125 -0.859375 C 1.421875 -0.816406 1.484375 -0.765625 1.515625 -0.703125 C 1.554688 -0.640625 1.578125 -0.566406 1.578125 -0.484375 C 1.578125 -0.367188 1.546875 -0.273438 1.484375 -0.203125 C 1.429688 -0.128906 1.351562 -0.078125 1.25 -0.046875 C 1.144531 -0.015625 1.035156 0 0.921875 0 Z M 0.921875 0 "/></g></g></g><g fill="#000000" fill-opacity="1"><g transform="translate(17.710053, 4.11859)"><g><path d="M 0.234375 0 L 0.234375 -2.34375 L 0.5 -2.34375 L 1.75 -0.515625 L 1.8125 -0.515625 L 1.8125 -2.34375 L 2.0625 -2.34375 L 2.0625 0 L 1.8125 0 L 0.546875 -1.828125 L 0.5 -1.828125 L 0.5 0 Z M 0.234375 0 "/></g></g></g><g fill="#000000" fill-opacity="1"><g transform="translate(19.959905, 4.11859)"><g><path d="M 0.828125 0 C 0.679688 0 0.554688 -0.0234375 0.453125 -0.078125 C 0.359375 -0.128906 0.285156 -0.203125 0.234375 -0.296875 C 0.191406 -0.390625 0.171875 -0.488281 0.171875 -0.59375 C 0.171875 -0.707031 0.191406 -0.804688 0.234375 -0.890625 C 0.285156 -0.984375 0.359375 -1.054688 0.453125 -1.109375 C 0.554688 -1.171875 0.679688 -1.203125 0.828125 -1.203125 C 0.960938 -1.203125 1.078125 -1.175781 1.171875 -1.125 C 1.265625 -1.070312 1.332031 -1.015625 1.375 -0.953125 L 1.375 -1.5 L 0.390625 -1.5 L 0.390625 -1.75 L 1.625 -1.75 L 1.625 -0.25 L 1.890625 -0.25 L 1.890625 0 L 1.375 0 L 1.375 -0.25 C 1.332031 -0.1875 1.265625 -0.128906 1.171875 -0.078125 C 1.078125 -0.0234375 0.960938 0 0.828125 0 Z M 0.890625 -0.234375 C 1.035156 -0.234375 1.148438 -0.257812 1.234375 -0.3125 C 1.328125 -0.375 1.375 -0.46875 1.375 -0.59375 C 1.375 -0.71875 1.328125 -0.8125 1.234375 -0.875 C 1.148438 -0.9375 1.035156 -0.96875 0.890625 -0.96875 C 0.734375 -0.96875 0.613281 -0.9375 0.53125 -0.875 C 0.457031 -0.8125 0.421875 -0.71875 0.421875 -0.59375 C 0.421875 -0.46875 0.457031 -0.375 0.53125 -0.3125 C 0.613281 -0.257812 0.734375 -0.234375 0.890625 -0.234375 Z M 0.890625 -0.234375 "/></g></g></g><g fill="#000000" fill-opacity="1"><g transform="translate(21.975111, 4.11859)"><g><path d="M 0.234375 0 L 0.234375 -1.75 L 2.640625 -1.75 L 2.640625 0 L 2.375 0 L 2.375 -1.5 L 1.5625 -1.5 L 1.5625 0 L 1.3125 0 L 1.3125 -1.5 L 0.5 -1.5 L 0.5 0 Z M 0.234375 0 "/></g></g></g><g fill="#000000" fill-opacity="1"><g transform="translate(24.787428, 4.11859)"><g><path d="M 1.0625 0 C 0.875 0 0.71875 -0.0234375 0.59375 -0.078125 C 0.476562 -0.140625 0.390625 -0.21875 0.328125 -0.3125 C 0.265625 -0.40625 0.222656 -0.5 0.203125 -0.59375 C 0.179688 -0.695312 0.171875 -0.789062 0.171875 -0.875 C 0.171875 -1.039062 0.195312 -1.1875 0.25 -1.3125 C 0.300781 -1.445312 0.378906 -1.550781 0.484375 -1.625 C 0.597656 -1.707031 0.75 -1.75 0.9375 -1.75 C 1.125 -1.75 1.269531 -1.710938 1.375 -1.640625 C 1.488281 -1.578125 1.570312 -1.476562 1.625 -1.34375 C 1.675781 -1.21875 1.703125 -1.070312 1.703125 -0.90625 L 1.703125 -0.78125 L 0.4375 -0.78125 C 0.4375 -0.71875 0.445312 -0.65625 0.46875 -0.59375 C 0.488281 -0.53125 0.519531 -0.472656 0.5625 -0.421875 C 0.613281 -0.367188 0.679688 -0.328125 0.765625 -0.296875 C 0.847656 -0.265625 0.957031 -0.25 1.09375 -0.25 C 1.144531 -0.25 1.207031 -0.25 1.28125 -0.25 C 1.363281 -0.257812 1.460938 -0.28125 1.578125 -0.3125 L 1.578125 -0.0625 C 1.453125 -0.03125 1.351562 -0.0078125 1.28125 0 C 1.207031 0 1.132812 0 1.0625 0 Z M 0.421875 -0.96875 L 1.453125 -0.96875 C 1.453125 -1.113281 1.425781 -1.222656 1.375 -1.296875 C 1.320312 -1.378906 1.253906 -1.429688 1.171875 -1.453125 C 1.097656 -1.484375 1.019531 -1.5 0.9375 -1.5 C 0.851562 -1.5 0.769531 -1.484375 0.6875 -1.453125 C 0.613281 -1.421875 0.550781 -1.367188 0.5 -1.296875 C 0.445312 -1.222656 0.421875 -1.113281 0.421875 -0.96875 Z M 0.421875 -0.96875 "/></g></g></g><g fill="#000000" fill-opacity="1"><g transform="translate(26.695663, 4.11859)"><g><path d="M 0.203125 -1.25 L 0.203125 -1.5 L 1.484375 -1.5 L 1.484375 -1.25 Z M 0.203125 -0.578125 L 0.203125 -0.828125 L 1.484375 -0.828125 L 1.484375 -0.578125 Z M 0.203125 -0.578125 "/></g></g></g><g fill="#000000" fill-opacity="1"><g transform="translate(28.3796, 4.11859)"><g><path d="M 0.203125 -1.6875 L 0.203125 -2.421875 L 0.5 -2.421875 L 0.5 -1.6875 Z M 0.203125 -1.6875 "/></g></g></g><g fill="#000000" fill-opacity="1"><g transform="translate(29.093895, 4.11859)"><g><path d="M 0.5 0 L 0.5 -1.46875 L 0.171875 -1.46875 L 0.171875 -1.71875 L 0.5 -1.71875 L 0.5 -2.421875 L 1.3125 -2.421875 L 1.3125 -2.171875 L 0.75 -2.171875 L 0.75 -1.71875 L 1.3125 -1.71875 L 1.3125 -1.46875 L 0.75 -1.46875 L 0.75 0 Z M 0.5 0 "/></g></g></g><g fill="#000000" fill-opacity="1"><g transform="translate(30.401707, 4.11859)"><g><path d="M 1.015625 0 C 0.835938 0 0.6875 -0.0351562 0.5625 -0.109375 C 0.4375 -0.191406 0.335938 -0.296875 0.265625 -0.421875 C 0.203125 -0.554688 0.171875 -0.707031 0.171875 -0.875 C 0.171875 -1.039062 0.203125 -1.191406 0.265625 -1.328125 C 0.335938 -1.460938 0.4375 -1.566406 0.5625 -1.640625 C 0.6875 -1.710938 0.835938 -1.75 1.015625 -1.75 C 1.191406 -1.75 1.34375 -1.710938 1.46875 -1.640625 C 1.601562 -1.566406 1.703125 -1.460938 1.765625 -1.328125 C 1.828125 -1.191406 1.859375 -1.039062 1.859375 -0.875 C 1.859375 -0.707031 1.828125 -0.554688 1.765625 -0.421875 C 1.703125 -0.296875 1.601562 -0.191406 1.46875 -0.109375 C 1.34375 -0.0351562 1.191406 0 1.015625 0 Z M 1.015625 -0.25 C 1.210938 -0.25 1.359375 -0.304688 1.453125 -0.421875 C 1.554688 -0.535156 1.609375 -0.6875 1.609375 -0.875 C 1.609375 -1.0625 1.554688 -1.210938 1.453125 -1.328125 C 1.359375 -1.441406 1.210938 -1.5 1.015625 -1.5 C 0.816406 -1.5 0.664062 -1.441406 0.5625 -1.328125 C 0.46875 -1.210938 0.421875 -1.0625 0.421875 -0.875 C 0.421875 -0.6875 0.46875 -0.535156 0.5625 -0.421875 C 0.664062 -0.304688 0.816406 -0.25 1.015625 -0.25 Z M 1.015625 -0.25 "/></g></g></g><g fill="#000000" fill-opacity="1"><g transform="translate(32.365152, 4.11859)"><g><path d="M 1 0 C 0.832031 0 0.6875 -0.0234375 0.5625 -0.078125 C 0.445312 -0.128906 0.359375 -0.207031 0.296875 -0.3125 C 0.234375 -0.425781 0.203125 -0.578125 0.203125 -0.765625 L 0.203125 -1.75 L 0.453125 -1.75 L 0.453125 -0.75 C 0.453125 -0.644531 0.46875 -0.554688 0.5 -0.484375 C 0.53125 -0.410156 0.582031 -0.351562 0.65625 -0.3125 C 0.738281 -0.269531 0.851562 -0.25 1 -0.25 C 1.132812 -0.25 1.238281 -0.269531 1.3125 -0.3125 C 1.394531 -0.351562 1.453125 -0.410156 1.484375 -0.484375 C 1.515625 -0.554688 1.53125 -0.644531 1.53125 -0.75 L 1.53125 -1.75 L 1.78125 -1.75 L 1.78125 -0.765625 C 1.78125 -0.578125 1.75 -0.425781 1.6875 -0.3125 C 1.625 -0.207031 1.53125 -0.128906 1.40625 -0.078125 C 1.289062 -0.0234375 1.15625 0 1 0 Z M 1 0 "/></g></g></g><g fill="#000000" fill-opacity="1"><g transform="translate(34.338946, 4.11859)"><g><path d="M 0.203125 0 L 0.203125 -1.75 L 1.21875 -1.75 L 1.21875 -1.5 L 0.453125 -1.5 L 0.453125 0 Z M 0.203125 0 "/></g></g></g><g fill="#000000" fill-opacity="1"><g transform="translate(35.733027, 4.11859)"><g><path d="M 0.203125 -0.921875 L 0.203125 -1.15625 L 1.484375 -1.15625 L 1.484375 -0.921875 Z M 0.203125 -0.921875 "/></g></g></g><g fill="#000000" fill-opacity="1"><g transform="translate(37.416965, 4.11859)"><g><path d="M 0.234375 0.546875 L 0.234375 -1.75 L 0.5 -1.75 L 0.5 -1.421875 C 0.539062 -1.503906 0.597656 -1.566406 0.671875 -1.609375 C 0.742188 -1.660156 0.816406 -1.695312 0.890625 -1.71875 C 0.972656 -1.738281 1.046875 -1.75 1.109375 -1.75 C 1.296875 -1.75 1.445312 -1.707031 1.5625 -1.625 C 1.6875 -1.539062 1.773438 -1.429688 1.828125 -1.296875 C 1.878906 -1.171875 1.90625 -1.03125 1.90625 -0.875 C 1.90625 -0.726562 1.878906 -0.585938 1.828125 -0.453125 C 1.773438 -0.316406 1.6875 -0.207031 1.5625 -0.125 C 1.445312 -0.0390625 1.296875 0 1.109375 0 C 1.046875 0 0.972656 -0.0078125 0.890625 -0.03125 C 0.816406 -0.0507812 0.742188 -0.0820312 0.671875 -0.125 C 0.597656 -0.175781 0.539062 -0.242188 0.5 -0.328125 L 0.5 0.546875 Z M 1.078125 -0.25 C 1.179688 -0.25 1.273438 -0.269531 1.359375 -0.3125 C 1.453125 -0.351562 1.523438 -0.414062 1.578125 -0.5 C 1.640625 -0.59375 1.671875 -0.71875 1.671875 -0.875 C 1.671875 -1.03125 1.640625 -1.15625 1.578125 -1.25 C 1.523438 -1.34375 1.453125 -1.40625 1.359375 -1.4375 C 1.273438 -1.476562 1.179688 -1.5 1.078125 -1.5 C 0.984375 -1.5 0.890625 -1.476562 0.796875 -1.4375 C 0.710938 -1.394531 0.640625 -1.328125 0.578125 -1.234375 C 0.523438 -1.148438 0.5 -1.03125 0.5 -0.875 C 0.5 -0.726562 0.523438 -0.609375 0.578125 -0.515625 C 0.640625 -0.421875 0.710938 -0.351562 0.796875 -0.3125 C 0.890625 -0.269531 0.984375 -0.25 1.078125 -0.25 Z M 1.078125 -0.25 "/></g></g></g><g fill="#000000" fill-opacity="1"><g transform="translate(39.328648, 4.11859)"><g><path d="M 0.5 0 L 0.5 -1.5 L 0.171875 -1.5 L 0.171875 -1.75 L 0.5 -1.75 L 0.5 -2.421875 L 0.75 -2.421875 L 0.75 -1.75 L 1.296875 -1.75 L 1.296875 -1.5 L 0.75 -1.5 L 0.75 -0.25 L 1.296875 -0.25 L 1.296875 0 Z M 0.5 0 "/></g></g></g><g fill="#000000" fill-opacity="1"><g transform="translate(40.826249, 4.11859)"><g><path d="M 0.203125 -0.921875 L 0.203125 -1.15625 L 1.484375 -1.15625 L 1.484375 -0.921875 Z M 0.203125 -0.921875 "/></g></g></g><g fill="#000000" fill-opacity="1"><g transform="translate(42.510187, 4.11859)"><g><path d="M 0.5 0 L 0.5 -1.46875 L 0.171875 -1.46875 L 0.171875 -1.71875 L 0.5 -1.71875 L 0.5 -2.421875 L 1.3125 -2.421875 L 1.3125 -2.171875 L 0.75 -2.171875 L 0.75 -1.71875 L 1.3125 -1.71875 L 1.3125 -1.46875 L 0.75 -1.46875 L 0.75 0 Z M 0.5 0 "/></g></g></g><g fill="#000000" fill-opacity="1"><g transform="translate(43.928423, 4.11859)"><g><path d="M 0.234375 0 L 0.234375 -2.421875 L 0.5 -2.421875 L 0.5 0 Z M 0.234375 0 "/></g></g></g><g fill="#000000" fill-opacity="1"><g transform="translate(44.577154, 4.11859)"><g><path d="M 1.015625 0 C 0.835938 0 0.6875 -0.0351562 0.5625 -0.109375 C 0.4375 -0.191406 0.335938 -0.296875 0.265625 -0.421875 C 0.203125 -0.554688 0.171875 -0.707031 0.171875 -0.875 C 0.171875 -1.039062 0.203125 -1.191406 0.265625 -1.328125 C 0.335938 -1.460938 0.4375 -1.566406 0.5625 -1.640625 C 0.6875 -1.710938 0.835938 -1.75 1.015625 -1.75 C 1.191406 -1.75 1.34375 -1.710938 1.46875 -1.640625 C 1.601562 -1.566406 1.703125 -1.460938 1.765625 -1.328125 C 1.828125 -1.191406 1.859375 -1.039062 1.859375 -0.875 C 1.859375 -0.707031 1.828125 -0.554688 1.765625 -0.421875 C 1.703125 -0.296875 1.601562 -0.191406 1.46875 -0.109375 C 1.34375 -0.0351562 1.191406 0 1.015625 0 Z M 1.015625 -0.25 C 1.210938 -0.25 1.359375 -0.304688 1.453125 -0.421875 C 1.554688 -0.535156 1.609375 -0.6875 1.609375 -0.875 C 1.609375 -1.0625 1.554688 -1.210938 1.453125 -1.328125 C 1.359375 -1.441406 1.210938 -1.5 1.015625 -1.5 C 0.816406 -1.5 0.664062 -1.441406 0.5625 -1.328125 C 0.46875 -1.210938 0.421875 -1.0625 0.421875 -0.875 C 0.421875 -0.6875 0.46875 -0.535156 0.5625 -0.421875 C 0.664062 -0.304688 0.816406 -0.25 1.015625 -0.25 Z M 1.015625 -0.25 "/></g></g></g><g fill="#000000" fill-opacity="1"><g transform="translate(46.357714, 4.11859)"><g><path d="M 0.78125 0 L 0.203125 -1.75 L 0.46875 -1.75 L 0.96875 -0.28125 L 1.015625 -0.28125 L 1.46875 -1.75 L 1.90625 -1.75 L 2.359375 -0.28125 L 2.421875 -0.28125 L 2.90625 -1.75 L 3.171875 -1.75 L 2.59375 0 L 2.171875 0 L 1.71875 -1.46875 L 1.671875 -1.46875 L 1.203125 0 Z M 0.78125 0 "/></g></g></g><g fill="#000000" fill-opacity="1"><g transform="translate(49.511649, 4.11859)"><g><path d="M 1.0625 0 C 0.875 0 0.71875 -0.0234375 0.59375 -0.078125 C 0.476562 -0.140625 0.390625 -0.21875 0.328125 -0.3125 C 0.265625 -0.40625 0.222656 -0.5 0.203125 -0.59375 C 0.179688 -0.695312 0.171875 -0.789062 0.171875 -0.875 C 0.171875 -1.039062 0.195312 -1.1875 0.25 -1.3125 C 0.300781 -1.445312 0.378906 -1.550781 0.484375 -1.625 C 0.597656 -1.707031 0.75 -1.75 0.9375 -1.75 C 1.125 -1.75 1.269531 -1.710938 1.375 -1.640625 C 1.488281 -1.578125 1.570312 -1.476562 1.625 -1.34375 C 1.675781 -1.21875 1.703125 -1.070312 1.703125 -0.90625 L 1.703125 -0.78125 L 0.4375 -0.78125 C 0.4375 -0.71875 0.445312 -0.65625 0.46875 -0.59375 C 0.488281 -0.53125 0.519531 -0.472656 0.5625 -0.421875 C 0.613281 -0.367188 0.679688 -0.328125 0.765625 -0.296875 C 0.847656 -0.265625 0.957031 -0.25 1.09375 -0.25 C 1.144531 -0.25 1.207031 -0.25 1.28125 -0.25 C 1.363281 -0.257812 1.460938 -0.28125 1.578125 -0.3125 L 1.578125 -0.0625 C 1.453125 -0.03125 1.351562 -0.0078125 1.28125 0 C 1.207031 0 1.132812 0 1.0625 0 Z M 0.421875 -0.96875 L 1.453125 -0.96875 C 1.453125 -1.113281 1.425781 -1.222656 1.375 -1.296875 C 1.320312 -1.378906 1.253906 -1.429688 1.171875 -1.453125 C 1.097656 -1.484375 1.019531 -1.5 0.9375 -1.5 C 0.851562 -1.5 0.769531 -1.484375 0.6875 -1.453125 C 0.613281 -1.421875 0.550781 -1.367188 0.5 -1.296875 C 0.445312 -1.222656 0.421875 -1.113281 0.421875 -0.96875 Z M 0.421875 -0.96875 "/></g></g></g><g fill="#000000" fill-opacity="1"><g transform="translate(51.340519, 4.11859)"><g><path d="M 0.203125 0 L 0.203125 -1.75 L 1.21875 -1.75 L 1.21875 -1.5 L 0.453125 -1.5 L 0.453125 0 Z M 0.203125 0 "/></g></g></g><g fill="#000000" fill-opacity="1"><g transform="translate(52.7346, 4.11859)"><g><path d="M 0.203125 -1.6875 L 0.203125 -2.421875 L 0.5 -2.421875 L 0.5 -1.6875 Z M 0.203125 -1.6875 "/></g></g></g><g fill="#000000" fill-opacity="1"><g transform="translate(53.448895, 4.11859)"><g/></g></g><g fill="#000000" fill-opacity="1"><g transform="translate(54.760159, 4.11859)"><g><path d="M 0.921875 0 C 0.785156 0 0.660156 -0.015625 0.546875 -0.046875 C 0.441406 -0.078125 0.328125 -0.125 0.203125 -0.1875 L 0.203125 -0.453125 C 0.328125 -0.390625 0.445312 -0.335938 0.5625 -0.296875 C 0.6875 -0.265625 0.8125 -0.25 0.9375 -0.25 C 1.050781 -0.25 1.144531 -0.265625 1.21875 -0.296875 C 1.289062 -0.335938 1.328125 -0.40625 1.328125 -0.5 C 1.328125 -0.5625 1.3125 -0.609375 1.28125 -0.640625 C 1.25 -0.671875 1.203125 -0.695312 1.140625 -0.71875 C 1.078125 -0.738281 0.992188 -0.765625 0.890625 -0.796875 C 0.722656 -0.835938 0.59375 -0.878906 0.5 -0.921875 C 0.40625 -0.960938 0.335938 -1.015625 0.296875 -1.078125 C 0.265625 -1.140625 0.25 -1.21875 0.25 -1.3125 C 0.25 -1.457031 0.300781 -1.566406 0.40625 -1.640625 C 0.519531 -1.710938 0.671875 -1.75 0.859375 -1.75 C 0.960938 -1.75 1.066406 -1.738281 1.171875 -1.71875 C 1.285156 -1.695312 1.390625 -1.660156 1.484375 -1.609375 L 1.484375 -1.359375 C 1.378906 -1.398438 1.269531 -1.429688 1.15625 -1.453125 C 1.050781 -1.484375 0.953125 -1.5 0.859375 -1.5 C 0.742188 -1.5 0.65625 -1.484375 0.59375 -1.453125 C 0.53125 -1.421875 0.5 -1.367188 0.5 -1.296875 C 0.5 -1.210938 0.53125 -1.148438 0.59375 -1.109375 C 0.65625 -1.078125 0.765625 -1.039062 0.921875 -1 C 1.097656 -0.957031 1.234375 -0.910156 1.328125 -0.859375 C 1.421875 -0.816406 1.484375 -0.765625 1.515625 -0.703125 C 1.554688 -0.640625 1.578125 -0.566406 1.578125 -0.484375 C 1.578125 -0.367188 1.546875 -0.273438 1.484375 -0.203125 C 1.429688 -0.128906 1.351562 -0.078125 1.25 -0.046875 C 1.144531 -0.015625 1.035156 0 0.921875 0 Z M 0.921875 0 "/></g></g></g><g fill="#000000" fill-opacity="1"><g transform="translate(56.471707, 4.11859)"><g><path d="M 0.203125 0 L 0.203125 -1.75 L 1.21875 -1.75 L 1.21875 -1.5 L 0.453125 -1.5 L 0.453125 0 Z M 0.203125 0 "/></g></g></g><g fill="#000000" fill-opacity="1"><g transform="translate(57.658742, 4.11859)"><g><path d="M 0.984375 0 C 0.796875 0 0.644531 -0.0351562 0.53125 -0.109375 C 0.414062 -0.191406 0.328125 -0.296875 0.265625 -0.421875 C 0.203125 -0.554688 0.171875 -0.707031 0.171875 -0.875 C 0.171875 -1.039062 0.203125 -1.191406 0.265625 -1.328125 C 0.328125 -1.460938 0.414062 -1.566406 0.53125 -1.640625 C 0.644531 -1.710938 0.796875 -1.75 0.984375 -1.75 C 1.128906 -1.75 1.253906 -1.71875 1.359375 -1.65625 C 1.472656 -1.59375 1.5625 -1.507812 1.625 -1.40625 C 1.6875 -1.300781 1.71875 -1.1875 1.71875 -1.0625 L 1.46875 -1.0625 C 1.457031 -1.207031 1.40625 -1.316406 1.3125 -1.390625 C 1.21875 -1.460938 1.109375 -1.5 0.984375 -1.5 C 0.878906 -1.5 0.785156 -1.476562 0.703125 -1.4375 C 0.617188 -1.40625 0.550781 -1.34375 0.5 -1.25 C 0.445312 -1.15625 0.421875 -1.03125 0.421875 -0.875 C 0.421875 -0.71875 0.445312 -0.59375 0.5 -0.5 C 0.550781 -0.414062 0.617188 -0.351562 0.703125 -0.3125 C 0.785156 -0.269531 0.878906 -0.25 0.984375 -0.25 C 1.109375 -0.25 1.21875 -0.285156 1.3125 -0.359375 C 1.40625 -0.429688 1.457031 -0.539062 1.46875 -0.6875 L 1.71875 -0.6875 C 1.71875 -0.5625 1.6875 -0.445312 1.625 -0.34375 C 1.5625 -0.238281 1.472656 -0.15625 1.359375 -0.09375 C 1.253906 -0.03125 1.128906 0 0.984375 0 Z M 0.984375 0 "/></g></g></g><g fill="#000000" fill-opacity="1"><g transform="translate(59.584227, 4.11859)"><g><path d="M 0.203125 -1.25 L 0.203125 -1.5 L 1.484375 -1.5 L 1.484375 -1.25 Z M 0.203125 -0.578125 L 0.203125 -0.828125 L 1.484375 -0.828125 L 1.484375 -0.578125 Z M 0.203125 -0.578125 "/></g></g></g><g fill="#000000" fill-opacity="1"><g transform="translate(61.268171, 4.11859)"><g><path d="M 0.203125 -1.6875 L 0.203125 -2.421875 L 0.5 -2.421875 L 0.5 -1.6875 Z M 0.75 -1.6875 L 0.75 -2.421875 L 1.046875 -2.421875 L 1.046875 -1.6875 Z M 0.75 -1.6875 "/></g></g></g><g fill="#000000" fill-opacity="1"><g transform="translate(62.517318, 4.11859)"><g><path d="M 0.203125 0.546875 L 1.15625 -2.421875 L 1.421875 -2.421875 L 0.46875 0.546875 Z M 0.203125 0.546875 "/></g></g></g><g fill="#000000" fill-opacity="1"><g transform="translate(64.142593, 4.11859)"><g><path d="M 0.234375 -2.078125 L 0.234375 -2.421875 L 0.5 -2.421875 L 0.5 -2.078125 Z M 0.234375 0 L 0.234375 -1.75 L 0.5 -1.75 L 0.5 0 Z M 0.234375 0 "/></g></g></g><g fill="#000000" fill-opacity="1"><g transform="translate(64.798226, 4.11859)"><g><path d="M 0.984375 0 C 0.796875 0 0.644531 -0.0351562 0.53125 -0.109375 C 0.414062 -0.191406 0.328125 -0.296875 0.265625 -0.421875 C 0.203125 -0.554688 0.171875 -0.707031 0.171875 -0.875 C 0.171875 -1.039062 0.203125 -1.191406 0.265625 -1.328125 C 0.328125 -1.460938 0.414062 -1.566406 0.53125 -1.640625 C 0.644531 -1.710938 0.796875 -1.75 0.984375 -1.75 C 1.128906 -1.75 1.253906 -1.71875 1.359375 -1.65625 C 1.472656 -1.59375 1.5625 -1.507812 1.625 -1.40625 C 1.6875 -1.300781 1.71875 -1.1875 1.71875 -1.0625 L 1.46875 -1.0625 C 1.457031 -1.207031 1.40625 -1.316406 1.3125 -1.390625 C 1.21875 -1.460938 1.109375 -1.5 0.984375 -1.5 C 0.878906 -1.5 0.785156 -1.476562 0.703125 -1.4375 C 0.617188 -1.40625 0.550781 -1.34375 0.5 -1.25 C 0.445312 -1.15625 0.421875 -1.03125 0.421875 -0.875 C 0.421875 -0.71875 0.445312 -0.59375 0.5 -0.5 C 0.550781 -0.414062 0.617188 -0.351562 0.703125 -0.3125 C 0.785156 -0.269531 0.878906 -0.25 0.984375 -0.25 C 1.109375 -0.25 1.21875 -0.285156 1.3125 -0.359375 C 1.40625 -0.429688 1.457031 -0.539062 1.46875 -0.6875 L 1.71875 -0.6875 C 1.71875 -0.5625 1.6875 -0.445312 1.625 -0.34375 C 1.5625 -0.238281 1.472656 -0.15625 1.359375 -0.09375 C 1.253906 -0.03125 1.128906 0 0.984375 0 Z M 0.984375 0 "/></g></g></g><g fill="#000000" fill-opacity="1"><g transform="translate(66.661606, 4.11859)"><g><path d="M 1.015625 0 C 0.835938 0 0.6875 -0.0351562 0.5625 -0.109375 C 0.4375 -0.191406 0.335938 -0.296875 0.265625 -0.421875 C 0.203125 -0.554688 0.171875 -0.707031 0.171875 -0.875 C 0.171875 -1.039062 0.203125 -1.191406 0.265625 -1.328125 C 0.335938 -1.460938 0.4375 -1.566406 0.5625 -1.640625 C 0.6875 -1.710938 0.835938 -1.75 1.015625 -1.75 C 1.191406 -1.75 1.34375 -1.710938 1.46875 -1.640625 C 1.601562 -1.566406 1.703125 -1.460938 1.765625 -1.328125 C 1.828125 -1.191406 1.859375 -1.039062 1.859375 -0.875 C 1.859375 -0.707031 1.828125 -0.554688 1.765625 -0.421875 C 1.703125 -0.296875 1.601562 -0.191406 1.46875 -0.109375 C 1.34375 -0.0351562 1.191406 0 1.015625 0 Z M 1.015625 -0.25 C 1.210938 -0.25 1.359375 -0.304688 1.453125 -0.421875 C 1.554688 -0.535156 1.609375 -0.6875 1.609375 -0.875 C 1.609375 -1.0625 1.554688 -1.210938 1.453125 -1.328125 C 1.359375 -1.441406 1.210938 -1.5 1.015625 -1.5 C 0.816406 -1.5 0.664062 -1.441406 0.5625 -1.328125 C 0.46875 -1.210938 0.421875 -1.0625 0.421875 -0.875 C 0.421875 -0.6875 0.46875 -0.535156 0.5625 -0.421875 C 0.664062 -0.304688 0.816406 -0.25 1.015625 -0.25 Z M 1.015625 -0.25 "/></g></g></g><g fill="#000000" fill-opacity="1"><g transform="translate(68.642304, 4.11859)"><g><path d="M 0.203125 0 L 0.203125 -1.75 L 1.75 -1.75 L 1.75 0 L 1.5 0 L 1.5 -1.5 L 0.453125 -1.5 L 0.453125 0 Z M 0.203125 0 "/></g></g></g><g fill="#000000" fill-opacity="1"><g transform="translate(70.564333, 4.11859)"><g><path d="M 0.921875 0 C 0.785156 0 0.660156 -0.015625 0.546875 -0.046875 C 0.441406 -0.078125 0.328125 -0.125 0.203125 -0.1875 L 0.203125 -0.453125 C 0.328125 -0.390625 0.445312 -0.335938 0.5625 -0.296875 C 0.6875 -0.265625 0.8125 -0.25 0.9375 -0.25 C 1.050781 -0.25 1.144531 -0.265625 1.21875 -0.296875 C 1.289062 -0.335938 1.328125 -0.40625 1.328125 -0.5 C 1.328125 -0.5625 1.3125 -0.609375 1.28125 -0.640625 C 1.25 -0.671875 1.203125 -0.695312 1.140625 -0.71875 C 1.078125 -0.738281 0.992188 -0.765625 0.890625 -0.796875 C 0.722656 -0.835938 0.59375 -0.878906 0.5 -0.921875 C 0.40625 -0.960938 0.335938 -1.015625 0.296875 -1.078125 C 0.265625 -1.140625 0.25 -1.21875 0.25 -1.3125 C 0.25 -1.457031 0.300781 -1.566406 0.40625 -1.640625 C 0.519531 -1.710938 0.671875 -1.75 0.859375 -1.75 C 0.960938 -1.75 1.066406 -1.738281 1.171875 -1.71875 C 1.285156 -1.695312 1.390625 -1.660156 1.484375 -1.609375 L 1.484375 -1.359375 C 1.378906 -1.398438 1.269531 -1.429688 1.15625 -1.453125 C 1.050781 -1.484375 0.953125 -1.5 0.859375 -1.5 C 0.742188 -1.5 0.65625 -1.484375 0.59375 -1.453125 C 0.53125 -1.421875 0.5 -1.367188 0.5 -1.296875 C 0.5 -1.210938 0.53125 -1.148438 0.59375 -1.109375 C 0.65625 -1.078125 0.765625 -1.039062 0.921875 -1 C 1.097656 -0.957031 1.234375 -0.910156 1.328125 -0.859375 C 1.421875 -0.816406 1.484375 -0.765625 1.515625 -0.703125 C 1.554688 -0.640625 1.578125 -0.566406 1.578125 -0.484375 C 1.578125 -0.367188 1.546875 -0.273438 1.484375 -0.203125 C 1.429688 -0.128906 1.351562 -0.078125 1.25 -0.046875 C 1.144531 -0.015625 1.035156 0 0.921875 0 Z M 0.921875 0 "/></g></g></g><g fill="#000000" fill-opacity="1"><g transform="translate(72.355243, 4.11859)"><g><path d="M 0.203125 0.546875 L 1.15625 -2.421875 L 1.421875 -2.421875 L 0.46875 0.546875 Z M 0.203125 0.546875 "/></g></g></g><g fill="#000000" fill-opacity="1"><g transform="translate(73.980518, 4.11859)"><g><path d="M 0.5 0 L 0.5 -1.46875 L 0.171875 -1.46875 L 0.171875 -1.71875 L 0.5 -1.71875 L 0.5 -2.421875 L 1.3125 -2.421875 L 1.3125 -2.171875 L 0.75 -2.171875 L 0.75 -1.71875 L 1.3125 -1.71875 L 1.3125 -1.46875 L 0.75 -1.46875 L 0.75 0 Z M 0.5 0 "/></g></g></g><g fill="#000000" fill-opacity="1"><g transform="translate(75.288334, 4.11859)"><g><path d="M 1.015625 0 C 0.835938 0 0.6875 -0.0351562 0.5625 -0.109375 C 0.4375 -0.191406 0.335938 -0.296875 0.265625 -0.421875 C 0.203125 -0.554688 0.171875 -0.707031 0.171875 -0.875 C 0.171875 -1.039062 0.203125 -1.191406 0.265625 -1.328125 C 0.335938 -1.460938 0.4375 -1.566406 0.5625 -1.640625 C 0.6875 -1.710938 0.835938 -1.75 1.015625 -1.75 C 1.191406 -1.75 1.34375 -1.710938 1.46875 -1.640625 C 1.601562 -1.566406 1.703125 -1.460938 1.765625 -1.328125 C 1.828125 -1.191406 1.859375 -1.039062 1.859375 -0.875 C 1.859375 -0.707031 1.828125 -0.554688 1.765625 -0.421875 C 1.703125 -0.296875 1.601562 -0.191406 1.46875 -0.109375 C 1.34375 -0.0351562 1.191406 0 1.015625 0 Z M 1.015625 -0.25 C 1.210938 -0.25 1.359375 -0.304688 1.453125 -0.421875 C 1.554688 -0.535156 1.609375 -0.6875 1.609375 -0.875 C 1.609375 -1.0625 1.554688 -1.210938 1.453125 -1.328125 C 1.359375 -1.441406 1.210938 -1.5 1.015625 -1.5 C 0.816406 -1.5 0.664062 -1.441406 0.5625 -1.328125 C 0.46875 -1.210938 0.421875 -1.0625 0.421875 -0.875 C 0.421875 -0.6875 0.46875 -0.535156 0.5625 -0.421875 C 0.664062 -0.304688 0.816406 -0.25 1.015625 -0.25 Z M 1.015625 -0.25 "/></g></g></g><g fill="#000000" fill-opacity="1"><g transform="translate(77.251775, 4.11859)"><g><path d="M 1 0 C 0.832031 0 0.6875 -0.0234375 0.5625 -0.078125 C 0.445312 -0.128906 0.359375 -0.207031 0.296875 -0.3125 C 0.234375 -0.425781 0.203125 -0.578125 0.203125 -0.765625 L 0.203125 -1.75 L 0.453125 -1.75 L 0.453125 -0.75 C 0.453125 -0.644531 0.46875 -0.554688 0.5 -0.484375 C 0.53125 -0.410156 0.582031 -0.351562 0.65625 -0.3125 C 0.738281 -0.269531 0.851562 -0.25 1 -0.25 C 1.132812 -0.25 1.238281 -0.269531 1.3125 -0.3125 C 1.394531 -0.351562 1.453125 -0.410156 1.484375 -0.484375 C 1.515625 -0.554688 1.53125 -0.644531 1.53125 -0.75 L 1.53125 -1.75 L 1.78125 -1.75 L 1.78125 -0.765625 C 1.78125 -0.578125 1.75 -0.425781 1.6875 -0.3125 C 1.625 -0.207031 1.53125 -0.128906 1.40625 -0.078125 C 1.289062 -0.0234375 1.15625 0 1 0 Z M 1 0 "/></g></g></g><g fill="#000000" fill-opacity="1"><g transform="translate(79.225576, 4.11859)"><g><path d="M 0.203125 0 L 0.203125 -1.75 L 1.21875 -1.75 L 1.21875 -1.5 L 0.453125 -1.5 L 0.453125 0 Z M 0.203125 0 "/></g></g></g><g fill="#000000" fill-opacity="1"><g transform="translate(80.619651, 4.11859)"><g><path d="M 0.203125 -0.921875 L 0.203125 -1.15625 L 1.484375 -1.15625 L 1.484375 -0.921875 Z M 0.203125 -0.921875 "/></g></g></g><g fill="#000000" fill-opacity="1"><g transform="translate(82.303595, 4.11859)"><g><path d="M 0.234375 0.546875 L 0.234375 -1.75 L 0.5 -1.75 L 0.5 -1.421875 C 0.539062 -1.503906 0.597656 -1.566406 0.671875 -1.609375 C 0.742188 -1.660156 0.816406 -1.695312 0.890625 -1.71875 C 0.972656 -1.738281 1.046875 -1.75 1.109375 -1.75 C 1.296875 -1.75 1.445312 -1.707031 1.5625 -1.625 C 1.6875 -1.539062 1.773438 -1.429688 1.828125 -1.296875 C 1.878906 -1.171875 1.90625 -1.03125 1.90625 -0.875 C 1.90625 -0.726562 1.878906 -0.585938 1.828125 -0.453125 C 1.773438 -0.316406 1.6875 -0.207031 1.5625 -0.125 C 1.445312 -0.0390625 1.296875 0 1.109375 0 C 1.046875 0 0.972656 -0.0078125 0.890625 -0.03125 C 0.816406 -0.0507812 0.742188 -0.0820312 0.671875 -0.125 C 0.597656 -0.175781 0.539062 -0.242188 0.5 -0.328125 L 0.5 0.546875 Z M 1.078125 -0.25 C 1.179688 -0.25 1.273438 -0.269531 1.359375 -0.3125 C 1.453125 -0.351562 1.523438 -0.414062 1.578125 -0.5 C 1.640625 -0.59375 1.671875 -0.71875 1.671875 -0.875 C 1.671875 -1.03125 1.640625 -1.15625 1.578125 -1.25 C 1.523438 -1.34375 1.453125 -1.40625 1.359375 -1.4375 C 1.273438 -1.476562 1.179688 -1.5 1.078125 -1.5 C 0.984375 -1.5 0.890625 -1.476562 0.796875 -1.4375 C 0.710938 -1.394531 0.640625 -1.328125 0.578125 -1.234375 C 0.523438 -1.148438 0.5 -1.03125 0.5 -0.875 C 0.5 -0.726562 0.523438 -0.609375 0.578125 -0.515625 C 0.640625 -0.421875 0.710938 -0.351562 0.796875 -0.3125 C 0.890625 -0.269531 0.984375 -0.25 1.078125 -0.25 Z M 1.078125 -0.25 "/></g></g></g><g fill="#000000" fill-opacity="1"><g transform="translate(84.336051, 4.11859)"><g><path d="M 1.015625 0 C 0.835938 0 0.6875 -0.0351562 0.5625 -0.109375 C 0.4375 -0.191406 0.335938 -0.296875 0.265625 -0.421875 C 0.203125 -0.554688 0.171875 -0.707031 0.171875 -0.875 C 0.171875 -1.039062 0.203125 -1.191406 0.265625 -1.328125 C 0.335938 -1.460938 0.4375 -1.566406 0.5625 -1.640625 C 0.6875 -1.710938 0.835938 -1.75 1.015625 -1.75 C 1.191406 -1.75 1.34375 -1.710938 1.46875 -1.640625 C 1.601562 -1.566406 1.703125 -1.460938 1.765625 -1.328125 C 1.828125 -1.191406 1.859375 -1.039062 1.859375 -0.875 C 1.859375 -0.707031 1.828125 -0.554688 1.765625 -0.421875 C 1.703125 -0.296875 1.601562 -0.191406 1.46875 -0.109375 C 1.34375 -0.0351562 1.191406 0 1.015625 0 Z M 1.015625 -0.25 C 1.210938 -0.25 1.359375 -0.304688 1.453125 -0.421875 C 1.554688 -0.535156 1.609375 -0.6875 1.609375 -0.875 C 1.609375 -1.0625 1.554688 -1.210938 1.453125 -1.328125 C 1.359375 -1.441406 1.210938 -1.5 1.015625 -1.5 C 0.816406 -1.5 0.664062 -1.441406 0.5625 -1.328125 C 0.46875 -1.210938 0.421875 -1.0625 0.421875 -0.875 C 0.421875 -0.6875 0.46875 -0.535156 0.5625 -0.421875 C 0.664062 -0.304688 0.816406 -0.25 1.015625 -0.25 Z M 1.015625 -0.25 "/></g></g></g><g fill="#000000" fill-opacity="1"><g transform="translate(86.299493, 4.11859)"><g><path d="M 0.234375 -2.078125 L 0.234375 -2.421875 L 0.5 -2.421875 L 0.5 -2.078125 Z M 0.234375 0 L 0.234375 -1.75 L 0.5 -1.75 L 0.5 0 Z M 0.234375 0 "/></g></g></g><g fill="#000000" fill-opacity="1"><g transform="translate(86.999979, 4.11859)"><g><path d="M 0.203125 0 L 0.203125 -1.75 L 1.75 -1.75 L 1.75 0 L 1.5 0 L 1.5 -1.5 L 0.453125 -1.5 L 0.453125 0 Z M 0.203125 0 "/></g></g></g><g fill="#000000" fill-opacity="1"><g transform="translate(88.922021, 4.11859)"><g><path d="M 0.5 0 L 0.5 -1.5 L 0.171875 -1.5 L 0.171875 -1.75 L 0.5 -1.75 L 0.5 -2.421875 L 0.75 -2.421875 L 0.75 -1.75 L 1.296875 -1.75 L 1.296875 -1.5 L 0.75 -1.5 L 0.75 -0.25 L 1.296875 -0.25 L 1.296875 0 Z M 0.5 0 "/></g></g><g transform="translate(90.419619, 4.11859)"><g><path d="M 0.203125 -0.921875 L 0.203125 -1.15625 L 1.484375 -1.15625 L 1.484375 -0.921875 Z M 0.203125 -0.921875 "/></g></g></g><g fill="#000000" fill-opacity="1"><g transform="translate(92.103557, 4.11859)"><g><path d="M 0.5 0 L 0.5 -1.46875 L 0.171875 -1.46875 L 0.171875 -1.71875 L 0.5 -1.71875 L 0.5 -2.421875 L 1.3125 -2.421875 L 1.3125 -2.171875 L 0.75 -2.171875 L 0.75 -1.71875 L 1.3125 -1.71875 L 1.3125 -1.46875 L 0.75 -1.46875 L 0.75 0 Z M 0.5 0 "/></g></g></g><g fill="#000000" fill-opacity="1"><g transform="translate(93.521793, 4.11859)"><g><path d="M 0.234375 0 L 0.234375 -2.421875 L 0.5 -2.421875 L 0.5 0 Z M 0.234375 0 "/></g></g></g><g fill="#000000" fill-opacity="1"><g transform="translate(94.170528, 4.11859)"><g><path d="M 1.015625 0 C 0.835938 0 0.6875 -0.0351562 0.5625 -0.109375 C 0.4375 -0.191406 0.335938 -0.296875 0.265625 -0.421875 C 0.203125 -0.554688 0.171875 -0.707031 0.171875 -0.875 C 0.171875 -1.039062 0.203125 -1.191406 0.265625 -1.328125 C 0.335938 -1.460938 0.4375 -1.566406 0.5625 -1.640625 C 0.6875 -1.710938 0.835938 -1.75 1.015625 -1.75 C 1.191406 -1.75 1.34375 -1.710938 1.46875 -1.640625 C 1.601562 -1.566406 1.703125 -1.460938 1.765625 -1.328125 C 1.828125 -1.191406 1.859375 -1.039062 1.859375 -0.875 C 1.859375 -0.707031 1.828125 -0.554688 1.765625 -0.421875 C 1.703125 -0.296875 1.601562 -0.191406 1.46875 -0.109375 C 1.34375 -0.0351562 1.191406 0 1.015625 0 Z M 1.015625 -0.25 C 1.210938 -0.25 1.359375 -0.304688 1.453125 -0.421875 C 1.554688 -0.535156 1.609375 -0.6875 1.609375 -0.875 C 1.609375 -1.0625 1.554688 -1.210938 1.453125 -1.328125 C 1.359375 -1.441406 1.210938 -1.5 1.015625 -1.5 C 0.816406 -1.5 0.664062 -1.441406 0.5625 -1.328125 C 0.46875 -1.210938 0.421875 -1.0625 0.421875 -0.875 C 0.421875 -0.6875 0.46875 -0.535156 0.5625 -0.421875 C 0.664062 -0.304688 0.816406 -0.25 1.015625 -0.25 Z M 1.015625 -0.25 "/></g></g></g><g fill="#000000" fill-opacity="1"><g transform="translate(95.951084, 4.11859)"><g><path d="M 0.78125 0 L 0.203125 -1.75 L 0.46875 -1.75 L 0.96875 -0.28125 L 1.015625 -0.28125 L 1.46875 -1.75 L 1.90625 -1.75 L 2.359375 -0.28125 L 2.421875 -0.28125 L 2.90625 -1.75 L 3.171875 -1.75 L 2.59375 0 L 2.171875 0 L 1.71875 -1.46875 L 1.671875 -1.46875 L 1.203125 0 Z M 0.78125 0 "/></g></g></g><g fill="#000000" fill-opacity="1"><g transform="translate(99.105023, 4.11859)"><g><path d="M 1.0625 0 C 0.875 0 0.71875 -0.0234375 0.59375 -0.078125 C 0.476562 -0.140625 0.390625 -0.21875 0.328125 -0.3125 C 0.265625 -0.40625 0.222656 -0.5 0.203125 -0.59375 C 0.179688 -0.695312 0.171875 -0.789062 0.171875 -0.875 C 0.171875 -1.039062 0.195312 -1.1875 0.25 -1.3125 C 0.300781 -1.445312 0.378906 -1.550781 0.484375 -1.625 C 0.597656 -1.707031 0.75 -1.75 0.9375 -1.75 C 1.125 -1.75 1.269531 -1.710938 1.375 -1.640625 C 1.488281 -1.578125 1.570312 -1.476562 1.625 -1.34375 C 1.675781 -1.21875 1.703125 -1.070312 1.703125 -0.90625 L 1.703125 -0.78125 L 0.4375 -0.78125 C 0.4375 -0.71875 0.445312 -0.65625 0.46875 -0.59375 C 0.488281 -0.53125 0.519531 -0.472656 0.5625 -0.421875 C 0.613281 -0.367188 0.679688 -0.328125 0.765625 -0.296875 C 0.847656 -0.265625 0.957031 -0.25 1.09375 -0.25 C 1.144531 -0.25 1.207031 -0.25 1.28125 -0.25 C 1.363281 -0.257812 1.460938 -0.28125 1.578125 -0.3125 L 1.578125 -0.0625 C 1.453125 -0.03125 1.351562 -0.0078125 1.28125 0 C 1.207031 0 1.132812 0 1.0625 0 Z M 0.421875 -0.96875 L 1.453125 -0.96875 C 1.453125 -1.113281 1.425781 -1.222656 1.375 -1.296875 C 1.320312 -1.378906 1.253906 -1.429688 1.171875 -1.453125 C 1.097656 -1.484375 1.019531 -1.5 0.9375 -1.5 C 0.851562 -1.5 0.769531 -1.484375 0.6875 -1.453125 C 0.613281 -1.421875 0.550781 -1.367188 0.5 -1.296875 C 0.445312 -1.222656 0.421875 -1.113281 0.421875 -0.96875 Z M 0.421875 -0.96875 "/></g></g></g><g fill="#000000" fill-opacity="1"><g transform="translate(100.933889, 4.11859)"><g><path d="M 0.203125 0 L 0.203125 -1.75 L 1.21875 -1.75 L 1.21875 -1.5 L 0.453125 -1.5 L 0.453125 0 Z M 0.203125 0 "/></g></g></g><g fill="#000000" fill-opacity="1"><g transform="translate(102.051916, 4.11859)"><g><path d="M 0.203125 0 L 0.203125 -0.296875 L 0.5 -0.296875 L 0.5 0 Z M 0.203125 0 "/></g></g></g><g fill="#000000" fill-opacity="1"><g transform="translate(102.76621, 4.11859)"><g><path d="M 0.921875 0 C 0.785156 0 0.660156 -0.015625 0.546875 -0.046875 C 0.441406 -0.078125 0.328125 -0.125 0.203125 -0.1875 L 0.203125 -0.453125 C 0.328125 -0.390625 0.445312 -0.335938 0.5625 -0.296875 C 0.6875 -0.265625 0.8125 -0.25 0.9375 -0.25 C 1.050781 -0.25 1.144531 -0.265625 1.21875 -0.296875 C 1.289062 -0.335938 1.328125 -0.40625 1.328125 -0.5 C 1.328125 -0.5625 1.3125 -0.609375 1.28125 -0.640625 C 1.25 -0.671875 1.203125 -0.695312 1.140625 -0.71875 C 1.078125 -0.738281 0.992188 -0.765625 0.890625 -0.796875 C 0.722656 -0.835938 0.59375 -0.878906 0.5 -0.921875 C 0.40625 -0.960938 0.335938 -1.015625 0.296875 -1.078125 C 0.265625 -1.140625 0.25 -1.21875 0.25 -1.3125 C 0.25 -1.457031 0.300781 -1.566406 0.40625 -1.640625 C 0.519531 -1.710938 0.671875 -1.75 0.859375 -1.75 C 0.960938 -1.75 1.066406 -1.738281 1.171875 -1.71875 C 1.285156 -1.695312 1.390625 -1.660156 1.484375 -1.609375 L 1.484375 -1.359375 C 1.378906 -1.398438 1.269531 -1.429688 1.15625 -1.453125 C 1.050781 -1.484375 0.953125 -1.5 0.859375 -1.5 C 0.742188 -1.5 0.65625 -1.484375 0.59375 -1.453125 C 0.53125 -1.421875 0.5 -1.367188 0.5 -1.296875 C 0.5 -1.210938 0.53125 -1.148438 0.59375 -1.109375 C 0.65625 -1.078125 0.765625 -1.039062 0.921875 -1 C 1.097656 -0.957031 1.234375 -0.910156 1.328125 -0.859375 C 1.421875 -0.816406 1.484375 -0.765625 1.515625 -0.703125 C 1.554688 -0.640625 1.578125 -0.566406 1.578125 -0.484375 C 1.578125 -0.367188 1.546875 -0.273438 1.484375 -0.203125 C 1.429688 -0.128906 1.351562 -0.078125 1.25 -0.046875 C 1.144531 -0.015625 1.035156 0 0.921875 0 Z M 0.921875 0 "/></g></g></g><g fill="#000000" fill-opacity="1"><g transform="translate(104.332823, 4.11859)"><g><path d="M 0.828125 0 L 0.203125 -1.75 L 0.46875 -1.75 L 0.984375 -0.28125 L 1.046875 -0.28125 L 1.5625 -1.75 L 1.828125 -1.75 L 1.21875 0 Z M 0.828125 0 "/></g></g></g><g fill="#000000" fill-opacity="1"><g transform="translate(106.199652, 4.11859)"><g><path d="M 0.453125 0.546875 L 0.453125 0.296875 L 1.5625 0.296875 L 1.5625 -0.453125 C 1.53125 -0.390625 1.476562 -0.332031 1.40625 -0.28125 C 1.34375 -0.238281 1.269531 -0.207031 1.1875 -0.1875 C 1.113281 -0.164062 1.039062 -0.15625 0.96875 -0.15625 C 0.78125 -0.15625 0.628906 -0.191406 0.515625 -0.265625 C 0.398438 -0.335938 0.3125 -0.429688 0.25 -0.546875 C 0.195312 -0.671875 0.171875 -0.804688 0.171875 -0.953125 C 0.171875 -1.097656 0.195312 -1.234375 0.25 -1.359375 C 0.3125 -1.484375 0.398438 -1.578125 0.515625 -1.640625 C 0.628906 -1.710938 0.78125 -1.75 0.96875 -1.75 C 1.039062 -1.75 1.113281 -1.738281 1.1875 -1.71875 C 1.269531 -1.695312 1.34375 -1.664062 1.40625 -1.625 C 1.476562 -1.582031 1.53125 -1.523438 1.5625 -1.453125 L 1.5625 -1.75 L 1.8125 -1.75 L 1.8125 0.546875 Z M 1 -0.40625 C 1.0625 -0.40625 1.125 -0.410156 1.1875 -0.421875 C 1.257812 -0.441406 1.320312 -0.46875 1.375 -0.5 C 1.4375 -0.539062 1.484375 -0.597656 1.515625 -0.671875 C 1.546875 -0.742188 1.5625 -0.835938 1.5625 -0.953125 C 1.5625 -1.066406 1.546875 -1.160156 1.515625 -1.234375 C 1.484375 -1.304688 1.4375 -1.359375 1.375 -1.390625 C 1.320312 -1.429688 1.257812 -1.457031 1.1875 -1.46875 C 1.125 -1.488281 1.0625 -1.5 1 -1.5 C 0.90625 -1.5 0.8125 -1.484375 0.71875 -1.453125 C 0.632812 -1.429688 0.5625 -1.378906 0.5 -1.296875 C 0.445312 -1.222656 0.421875 -1.109375 0.421875 -0.953125 C 0.421875 -0.804688 0.445312 -0.691406 0.5 -0.609375 C 0.5625 -0.535156 0.632812 -0.484375 0.71875 -0.453125 C 0.8125 -0.421875 0.90625 -0.40625 1 -0.40625 Z M 1 -0.40625 "/></g></g></g><g fill="#000000" fill-opacity="1"><g transform="translate(108.259719, 4.11859)"><g><path d="M 0.203125 -1.6875 L 0.203125 -2.421875 L 0.5 -2.421875 L 0.5 -1.6875 Z M 0.75 -1.6875 L 0.75 -2.421875 L 1.046875 -2.421875 L 1.046875 -1.6875 Z M 0.75 -1.6875 "/></g></g></g><g fill="#000000" fill-opacity="1"><g transform="translate(109.508865, 4.11859)"><g/></g></g><g fill="#000000" fill-opacity="1"><g transform="translate(110.82013, 4.11859)"><g><path d="M 0.828125 0 C 0.679688 0 0.554688 -0.0234375 0.453125 -0.078125 C 0.359375 -0.128906 0.285156 -0.203125 0.234375 -0.296875 C 0.191406 -0.390625 0.171875 -0.488281 0.171875 -0.59375 C 0.171875 -0.707031 0.191406 -0.804688 0.234375 -0.890625 C 0.285156 -0.984375 0.359375 -1.054688 0.453125 -1.109375 C 0.554688 -1.171875 0.679688 -1.203125 0.828125 -1.203125 C 0.960938 -1.203125 1.078125 -1.175781 1.171875 -1.125 C 1.265625 -1.070312 1.332031 -1.015625 1.375 -0.953125 L 1.375 -1.5 L 0.390625 -1.5 L 0.390625 -1.75 L 1.625 -1.75 L 1.625 -0.25 L 1.890625 -0.25 L 1.890625 0 L 1.375 0 L 1.375 -0.25 C 1.332031 -0.1875 1.265625 -0.128906 1.171875 -0.078125 C 1.078125 -0.0234375 0.960938 0 0.828125 0 Z M 0.890625 -0.234375 C 1.035156 -0.234375 1.148438 -0.257812 1.234375 -0.3125 C 1.328125 -0.375 1.375 -0.46875 1.375 -0.59375 C 1.375 -0.71875 1.328125 -0.8125 1.234375 -0.875 C 1.148438 -0.9375 1.035156 -0.96875 0.890625 -0.96875 C 0.734375 -0.96875 0.613281 -0.9375 0.53125 -0.875 C 0.457031 -0.8125 0.421875 -0.71875 0.421875 -0.59375 C 0.421875 -0.46875 0.457031 -0.375 0.53125 -0.3125 C 0.613281 -0.257812 0.734375 -0.234375 0.890625 -0.234375 Z M 0.890625 -0.234375 "/></g></g></g><g fill="#000000" fill-opacity="1"><g transform="translate(112.800828, 4.11859)"><g><path d="M 0.234375 0 L 0.234375 -2.421875 L 0.5 -2.421875 L 0.5 0 Z M 0.234375 0 "/></g></g></g><g fill="#000000" fill-opacity="1"><g transform="translate(113.432299, 4.11859)"><g><path d="M 0.5 0 L 0.5 -1.5 L 0.171875 -1.5 L 0.171875 -1.75 L 0.5 -1.75 L 0.5 -2.421875 L 0.75 -2.421875 L 0.75 -1.75 L 1.296875 -1.75 L 1.296875 -1.5 L 0.75 -1.5 L 0.75 -0.25 L 1.296875 -0.25 L 1.296875 0 Z M 0.5 0 "/></g></g></g><g fill="#000000" fill-opacity="1"><g transform="translate(114.929903, 4.11859)"><g><path d="M 0.203125 -1.25 L 0.203125 -1.5 L 1.484375 -1.5 L 1.484375 -1.25 Z M 0.203125 -0.578125 L 0.203125 -0.828125 L 1.484375 -0.828125 L 1.484375 -0.578125 Z M 0.203125 -0.578125 "/></g></g></g><g fill="#000000" fill-opacity="1"><g transform="translate(116.613848, 4.11859)"><g><path d="M 0.203125 -1.6875 L 0.203125 -2.421875 L 0.5 -2.421875 L 0.5 -1.6875 Z M 0.75 -1.6875 L 0.75 -2.421875 L 1.046875 -2.421875 L 1.046875 -1.6875 Z M 0.75 -1.6875 "/></g></g></g><g fill="#000000" fill-opacity="1"><g transform="translate(117.862994, 4.11859)"><g><path d="M 0.5 0 L 0.5 -1.46875 L 0.171875 -1.46875 L 0.171875 -1.71875 L 0.5 -1.71875 L 0.5 -2.421875 L 1.3125 -2.421875 L 1.3125 -2.171875 L 0.75 -2.171875 L 0.75 -1.71875 L 1.3125 -1.71875 L 1.3125 -1.46875 L 0.75 -1.46875 L 0.75 0 Z M 0.5 0 "/></g></g></g><g fill="#000000" fill-opacity="1"><g transform="translate(119.17081, 4.11859)"><g><path d="M 1.015625 0 C 0.835938 0 0.6875 -0.0351562 0.5625 -0.109375 C 0.4375 -0.191406 0.335938 -0.296875 0.265625 -0.421875 C 0.203125 -0.554688 0.171875 -0.707031 0.171875 -0.875 C 0.171875 -1.039062 0.203125 -1.191406 0.265625 -1.328125 C 0.335938 -1.460938 0.4375 -1.566406 0.5625 -1.640625 C 0.6875 -1.710938 0.835938 -1.75 1.015625 -1.75 C 1.191406 -1.75 1.34375 -1.710938 1.46875 -1.640625 C 1.601562 -1.566406 1.703125 -1.460938 1.765625 -1.328125 C 1.828125 -1.191406 1.859375 -1.039062 1.859375 -0.875 C 1.859375 -0.707031 1.828125 -0.554688 1.765625 -0.421875 C 1.703125 -0.296875 1.601562 -0.191406 1.46875 -0.109375 C 1.34375 -0.0351562 1.191406 0 1.015625 0 Z M 1.015625 -0.25 C 1.210938 -0.25 1.359375 -0.304688 1.453125 -0.421875 C 1.554688 -0.535156 1.609375 -0.6875 1.609375 -0.875 C 1.609375 -1.0625 1.554688 -1.210938 1.453125 -1.328125 C 1.359375 -1.441406 1.210938 -1.5 1.015625 -1.5 C 0.816406 -1.5 0.664062 -1.441406 0.5625 -1.328125 C 0.46875 -1.210938 0.421875 -1.0625 0.421875 -0.875 C 0.421875 -0.6875 0.46875 -0.535156 0.5625 -0.421875 C 0.664062 -0.304688 0.816406 -0.25 1.015625 -0.25 Z M 1.015625 -0.25 "/></g></g></g><g fill="#000000" fill-opacity="1"><g transform="translate(121.134251, 4.11859)"><g><path d="M 1 0 C 0.832031 0 0.6875 -0.0234375 0.5625 -0.078125 C 0.445312 -0.128906 0.359375 -0.207031 0.296875 -0.3125 C 0.234375 -0.425781 0.203125 -0.578125 0.203125 -0.765625 L 0.203125 -1.75 L 0.453125 -1.75 L 0.453125 -0.75 C 0.453125 -0.644531 0.46875 -0.554688 0.5 -0.484375 C 0.53125 -0.410156 0.582031 -0.351562 0.65625 -0.3125 C 0.738281 -0.269531 0.851562 -0.25 1 -0.25 C 1.132812 -0.25 1.238281 -0.269531 1.3125 -0.3125 C 1.394531 -0.351562 1.453125 -0.410156 1.484375 -0.484375 C 1.515625 -0.554688 1.53125 -0.644531 1.53125 -0.75 L 1.53125 -1.75 L 1.78125 -1.75 L 1.78125 -0.765625 C 1.78125 -0.578125 1.75 -0.425781 1.6875 -0.3125 C 1.625 -0.207031 1.53125 -0.128906 1.40625 -0.078125 C 1.289062 -0.0234375 1.15625 0 1 0 Z M 1 0 "/></g></g></g><g fill="#000000" fill-opacity="1"><g transform="translate(123.108052, 4.11859)"><g><path d="M 0.203125 0 L 0.203125 -1.75 L 1.21875 -1.75 L 1.21875 -1.5 L 0.453125 -1.5 L 0.453125 0 Z M 0.203125 0 "/></g></g></g><g fill="#000000" fill-opacity="1"><g transform="translate(124.502127, 4.11859)"><g><path d="M 0.203125 -0.921875 L 0.203125 -1.15625 L 1.484375 -1.15625 L 1.484375 -0.921875 Z M 0.203125 -0.921875 "/></g></g></g><g fill="#000000" fill-opacity="1"><g transform="translate(126.186058, 4.11859)"><g><path d="M 0.234375 0.546875 L 0.234375 -1.75 L 0.5 -1.75 L 0.5 -1.421875 C 0.539062 -1.503906 0.597656 -1.566406 0.671875 -1.609375 C 0.742188 -1.660156 0.816406 -1.695312 0.890625 -1.71875 C 0.972656 -1.738281 1.046875 -1.75 1.109375 -1.75 C 1.296875 -1.75 1.445312 -1.707031 1.5625 -1.625 C 1.6875 -1.539062 1.773438 -1.429688 1.828125 -1.296875 C 1.878906 -1.171875 1.90625 -1.03125 1.90625 -0.875 C 1.90625 -0.726562 1.878906 -0.585938 1.828125 -0.453125 C 1.773438 -0.316406 1.6875 -0.207031 1.5625 -0.125 C 1.445312 -0.0390625 1.296875 0 1.109375 0 C 1.046875 0 0.972656 -0.0078125 0.890625 -0.03125 C 0.816406 -0.0507812 0.742188 -0.0820312 0.671875 -0.125 C 0.597656 -0.175781 0.539062 -0.242188 0.5 -0.328125 L 0.5 0.546875 Z M 1.078125 -0.25 C 1.179688 -0.25 1.273438 -0.269531 1.359375 -0.3125 C 1.453125 -0.351562 1.523438 -0.414062 1.578125 -0.5 C 1.640625 -0.59375 1.671875 -0.71875 1.671875 -0.875 C 1.671875 -1.03125 1.640625 -1.15625 1.578125 -1.25 C 1.523438 -1.34375 1.453125 -1.40625 1.359375 -1.4375 C 1.273438 -1.476562 1.179688 -1.5 1.078125 -1.5 C 0.984375 -1.5 0.890625 -1.476562 0.796875 -1.4375 C 0.710938 -1.394531 0.640625 -1.328125 0.578125 -1.234375 C 0.523438 -1.148438 0.5 -1.03125 0.5 -0.875 C 0.5 -0.726562 0.523438 -0.609375 0.578125 -0.515625 C 0.640625 -0.421875 0.710938 -0.351562 0.796875 -0.3125 C 0.890625 -0.269531 0.984375 -0.25 1.078125 -0.25 Z M 1.078125 -0.25 "/></g></g></g><g fill="#000000" fill-opacity="1"><g transform="translate(128.218527, 4.11859)"><g><path d="M 1.015625 0 C 0.835938 0 0.6875 -0.0351562 0.5625 -0.109375 C 0.4375 -0.191406 0.335938 -0.296875 0.265625 -0.421875 C 0.203125 -0.554688 0.171875 -0.707031 0.171875 -0.875 C 0.171875 -1.039062 0.203125 -1.191406 0.265625 -1.328125 C 0.335938 -1.460938 0.4375 -1.566406 0.5625 -1.640625 C 0.6875 -1.710938 0.835938 -1.75 1.015625 -1.75 C 1.191406 -1.75 1.34375 -1.710938 1.46875 -1.640625 C 1.601562 -1.566406 1.703125 -1.460938 1.765625 -1.328125 C 1.828125 -1.191406 1.859375 -1.039062 1.859375 -0.875 C 1.859375 -0.707031 1.828125 -0.554688 1.765625 -0.421875 C 1.703125 -0.296875 1.601562 -0.191406 1.46875 -0.109375 C 1.34375 -0.0351562 1.191406 0 1.015625 0 Z M 1.015625 -0.25 C 1.210938 -0.25 1.359375 -0.304688 1.453125 -0.421875 C 1.554688 -0.535156 1.609375 -0.6875 1.609375 -0.875 C 1.609375 -1.0625 1.554688 -1.210938 1.453125 -1.328125 C 1.359375 -1.441406 1.210938 -1.5 1.015625 -1.5 C 0.816406 -1.5 0.664062 -1.441406 0.5625 -1.328125 C 0.46875 -1.210938 0.421875 -1.0625 0.421875 -0.875 C 0.421875 -0.6875 0.46875 -0.535156 0.5625 -0.421875 C 0.664062 -0.304688 0.816406 -0.25 1.015625 -0.25 Z M 1.015625 -0.25 "/></g></g></g><g fill="#000000" fill-opacity="1"><g transform="translate(130.181969, 4.11859)"><g><path d="M 0.234375 -2.078125 L 0.234375 -2.421875 L 0.5 -2.421875 L 0.5 -2.078125 Z M 0.234375 0 L 0.234375 -1.75 L 0.5 -1.75 L 0.5 0 Z M 0.234375 0 "/></g></g></g><g fill="#000000" fill-opacity="1"><g transform="translate(130.882455, 4.11859)"><g><path d="M 0.203125 0 L 0.203125 -1.75 L 1.75 -1.75 L 1.75 0 L 1.5 0 L 1.5 -1.5 L 0.453125 -1.5 L 0.453125 0 Z M 0.203125 0 "/></g></g></g><g fill="#000000" fill-opacity="1"><g transform="translate(132.804497, 4.11859)"><g><path d="M 0.5 0 L 0.5 -1.5 L 0.171875 -1.5 L 0.171875 -1.75 L 0.5 -1.75 L 0.5 -2.421875 L 0.75 -2.421875 L 0.75 -1.75 L 1.296875 -1.75 L 1.296875 -1.5 L 0.75 -1.5 L 0.75 -0.25 L 1.296875 -0.25 L 1.296875 0 Z M 0.5 0 "/></g></g></g><g fill="#000000" fill-opacity="1"><g transform="translate(134.302088, 4.11859)"><g><path d="M 0.203125 -0.921875 L 0.203125 -1.15625 L 1.484375 -1.15625 L 1.484375 -0.921875 Z M 0.203125 -0.921875 "/></g></g></g><g fill="#000000" fill-opacity="1"><g transform="translate(135.986033, 4.11859)"><g><path d="M 0.5 0 L 0.5 -1.46875 L 0.171875 -1.46875 L 0.171875 -1.71875 L 0.5 -1.71875 L 0.5 -2.421875 L 1.3125 -2.421875 L 1.3125 -2.171875 L 0.75 -2.171875 L 0.75 -1.71875 L 1.3125 -1.71875 L 1.3125 -1.46875 L 0.75 -1.46875 L 0.75 0 Z M 0.5 0 "/></g></g></g><g fill="#000000" fill-opacity="1"><g transform="translate(137.404262, 4.11859)"><g><path d="M 0.234375 0 L 0.234375 -2.421875 L 0.5 -2.421875 L 0.5 0 Z M 0.234375 0 "/></g></g></g><g fill="#000000" fill-opacity="1"><g transform="translate(138.053003, 4.11859)"><g><path d="M 1.015625 0 C 0.835938 0 0.6875 -0.0351562 0.5625 -0.109375 C 0.4375 -0.191406 0.335938 -0.296875 0.265625 -0.421875 C 0.203125 -0.554688 0.171875 -0.707031 0.171875 -0.875 C 0.171875 -1.039062 0.203125 -1.191406 0.265625 -1.328125 C 0.335938 -1.460938 0.4375 -1.566406 0.5625 -1.640625 C 0.6875 -1.710938 0.835938 -1.75 1.015625 -1.75 C 1.191406 -1.75 1.34375 -1.710938 1.46875 -1.640625 C 1.601562 -1.566406 1.703125 -1.460938 1.765625 -1.328125 C 1.828125 -1.191406 1.859375 -1.039062 1.859375 -0.875 C 1.859375 -0.707031 1.828125 -0.554688 1.765625 -0.421875 C 1.703125 -0.296875 1.601562 -0.191406 1.46875 -0.109375 C 1.34375 -0.0351562 1.191406 0 1.015625 0 Z M 1.015625 -0.25 C 1.210938 -0.25 1.359375 -0.304688 1.453125 -0.421875 C 1.554688 -0.535156 1.609375 -0.6875 1.609375 -0.875 C 1.609375 -1.0625 1.554688 -1.210938 1.453125 -1.328125 C 1.359375 -1.441406 1.210938 -1.5 1.015625 -1.5 C 0.816406 -1.5 0.664062 -1.441406 0.5625 -1.328125 C 0.46875 -1.210938 0.421875 -1.0625 0.421875 -0.875 C 0.421875 -0.6875 0.46875 -0.535156 0.5625 -0.421875 C 0.664062 -0.304688 0.816406 -0.25 1.015625 -0.25 Z M 1.015625 -0.25 "/></g></g></g><g fill="#000000" fill-opacity="1"><g transform="translate(139.833553, 4.11859)"><g><path d="M 0.78125 0 L 0.203125 -1.75 L 0.46875 -1.75 L 0.96875 -0.28125 L 1.015625 -0.28125 L 1.46875 -1.75 L 1.90625 -1.75 L 2.359375 -0.28125 L 2.421875 -0.28125 L 2.90625 -1.75 L 3.171875 -1.75 L 2.59375 0 L 2.171875 0 L 1.71875 -1.46875 L 1.671875 -1.46875 L 1.203125 0 Z M 0.78125 0 "/></g></g></g><g fill="#000000" fill-opacity="1"><g transform="translate(142.987485, 4.11859)"><g><path d="M 1.0625 0 C 0.875 0 0.71875 -0.0234375 0.59375 -0.078125 C 0.476562 -0.140625 0.390625 -0.21875 0.328125 -0.3125 C 0.265625 -0.40625 0.222656 -0.5 0.203125 -0.59375 C 0.179688 -0.695312 0.171875 -0.789062 0.171875 -0.875 C 0.171875 -1.039062 0.195312 -1.1875 0.25 -1.3125 C 0.300781 -1.445312 0.378906 -1.550781 0.484375 -1.625 C 0.597656 -1.707031 0.75 -1.75 0.9375 -1.75 C 1.125 -1.75 1.269531 -1.710938 1.375 -1.640625 C 1.488281 -1.578125 1.570312 -1.476562 1.625 -1.34375 C 1.675781 -1.21875 1.703125 -1.070312 1.703125 -0.90625 L 1.703125 -0.78125 L 0.4375 -0.78125 C 0.4375 -0.71875 0.445312 -0.65625 0.46875 -0.59375 C 0.488281 -0.53125 0.519531 -0.472656 0.5625 -0.421875 C 0.613281 -0.367188 0.679688 -0.328125 0.765625 -0.296875 C 0.847656 -0.265625 0.957031 -0.25 1.09375 -0.25 C 1.144531 -0.25 1.207031 -0.25 1.28125 -0.25 C 1.363281 -0.257812 1.460938 -0.28125 1.578125 -0.3125 L 1.578125 -0.0625 C 1.453125 -0.03125 1.351562 -0.0078125 1.28125 0 C 1.207031 0 1.132812 0 1.0625 0 Z M 0.421875 -0.96875 L 1.453125 -0.96875 C 1.453125 -1.113281 1.425781 -1.222656 1.375 -1.296875 C 1.320312 -1.378906 1.253906 -1.429688 1.171875 -1.453125 C 1.097656 -1.484375 1.019531 -1.5 0.9375 -1.5 C 0.851562 -1.5 0.769531 -1.484375 0.6875 -1.453125 C 0.613281 -1.421875 0.550781 -1.367188 0.5 -1.296875 C 0.445312 -1.222656 0.421875 -1.113281 0.421875 -0.96875 Z M 0.421875 -0.96875 "/></g></g></g><g fill="#000000" fill-opacity="1"><g transform="translate(144.816358, 4.11859)"><g><path d="M 0.203125 0 L 0.203125 -1.75 L 1.21875 -1.75 L 1.21875 -1.5 L 0.453125 -1.5 L 0.453125 0 Z M 0.203125 0 "/></g></g></g><g fill="#000000" fill-opacity="1"><g transform="translate(146.210446, 4.11859)"><g><path d="M 0.203125 -0.921875 L 0.203125 -1.15625 L 1.484375 -1.15625 L 1.484375 -0.921875 Z M 0.203125 -0.921875 "/></g></g></g><g fill="#000000" fill-opacity="1"><g transform="translate(147.894377, 4.11859)"><g><path d="M 0.921875 0 C 0.785156 0 0.660156 -0.015625 0.546875 -0.046875 C 0.441406 -0.078125 0.328125 -0.125 0.203125 -0.1875 L 0.203125 -0.453125 C 0.328125 -0.390625 0.445312 -0.335938 0.5625 -0.296875 C 0.6875 -0.265625 0.8125 -0.25 0.9375 -0.25 C 1.050781 -0.25 1.144531 -0.265625 1.21875 -0.296875 C 1.289062 -0.335938 1.328125 -0.40625 1.328125 -0.5 C 1.328125 -0.5625 1.3125 -0.609375 1.28125 -0.640625 C 1.25 -0.671875 1.203125 -0.695312 1.140625 -0.71875 C 1.078125 -0.738281 0.992188 -0.765625 0.890625 -0.796875 C 0.722656 -0.835938 0.59375 -0.878906 0.5 -0.921875 C 0.40625 -0.960938 0.335938 -1.015625 0.296875 -1.078125 C 0.265625 -1.140625 0.25 -1.21875 0.25 -1.3125 C 0.25 -1.457031 0.300781 -1.566406 0.40625 -1.640625 C 0.519531 -1.710938 0.671875 -1.75 0.859375 -1.75 C 0.960938 -1.75 1.066406 -1.738281 1.171875 -1.71875 C 1.285156 -1.695312 1.390625 -1.660156 1.484375 -1.609375 L 1.484375 -1.359375 C 1.378906 -1.398438 1.269531 -1.429688 1.15625 -1.453125 C 1.050781 -1.484375 0.953125 -1.5 0.859375 -1.5 C 0.742188 -1.5 0.65625 -1.484375 0.59375 -1.453125 C 0.53125 -1.421875 0.5 -1.367188 0.5 -1.296875 C 0.5 -1.210938 0.53125 -1.148438 0.59375 -1.109375 C 0.65625 -1.078125 0.765625 -1.039062 0.921875 -1 C 1.097656 -0.957031 1.234375 -0.910156 1.328125 -0.859375 C 1.421875 -0.816406 1.484375 -0.765625 1.515625 -0.703125 C 1.554688 -0.640625 1.578125 -0.566406 1.578125 -0.484375 C 1.578125 -0.367188 1.546875 -0.273438 1.484375 -0.203125 C 1.429688 -0.128906 1.351562 -0.078125 1.25 -0.046875 C 1.144531 -0.015625 1.035156 0 0.921875 0 Z M 0.921875 0 "/></g></g></g><g fill="#000000" fill-opacity="1"><g transform="translate(149.460997, 4.11859)"><g><path d="M 0.828125 0 L 0.203125 -1.75 L 0.46875 -1.75 L 0.984375 -0.28125 L 1.046875 -0.28125 L 1.5625 -1.75 L 1.828125 -1.75 L 1.21875 0 Z M 0.828125 0 "/></g></g></g><g fill="#000000" fill-opacity="1"><g transform="translate(151.327819, 4.11859)"><g><path d="M 0.453125 0.546875 L 0.453125 0.296875 L 1.5625 0.296875 L 1.5625 -0.453125 C 1.53125 -0.390625 1.476562 -0.332031 1.40625 -0.28125 C 1.34375 -0.238281 1.269531 -0.207031 1.1875 -0.1875 C 1.113281 -0.164062 1.039062 -0.15625 0.96875 -0.15625 C 0.78125 -0.15625 0.628906 -0.191406 0.515625 -0.265625 C 0.398438 -0.335938 0.3125 -0.429688 0.25 -0.546875 C 0.195312 -0.671875 0.171875 -0.804688 0.171875 -0.953125 C 0.171875 -1.097656 0.195312 -1.234375 0.25 -1.359375 C 0.3125 -1.484375 0.398438 -1.578125 0.515625 -1.640625 C 0.628906 -1.710938 0.78125 -1.75 0.96875 -1.75 C 1.039062 -1.75 1.113281 -1.738281 1.1875 -1.71875 C 1.269531 -1.695312 1.34375 -1.664062 1.40625 -1.625 C 1.476562 -1.582031 1.53125 -1.523438 1.5625 -1.453125 L 1.5625 -1.75 L 1.8125 -1.75 L 1.8125 0.546875 Z M 1 -0.40625 C 1.0625 -0.40625 1.125 -0.410156 1.1875 -0.421875 C 1.257812 -0.441406 1.320312 -0.46875 1.375 -0.5 C 1.4375 -0.539062 1.484375 -0.597656 1.515625 -0.671875 C 1.546875 -0.742188 1.5625 -0.835938 1.5625 -0.953125 C 1.5625 -1.066406 1.546875 -1.160156 1.515625 -1.234375 C 1.484375 -1.304688 1.4375 -1.359375 1.375 -1.390625 C 1.320312 -1.429688 1.257812 -1.457031 1.1875 -1.46875 C 1.125 -1.488281 1.0625 -1.5 1 -1.5 C 0.90625 -1.5 0.8125 -1.484375 0.71875 -1.453125 C 0.632812 -1.429688 0.5625 -1.378906 0.5 -1.296875 C 0.445312 -1.222656 0.421875 -1.109375 0.421875 -0.953125 C 0.421875 -0.804688 0.445312 -0.691406 0.5 -0.609375 C 0.5625 -0.535156 0.632812 -0.484375 0.71875 -0.453125 C 0.8125 -0.421875 0.90625 -0.40625 1 -0.40625 Z M 1 -0.40625 "/></g></g></g><g fill="#000000" fill-opacity="1"><g transform="translate(153.387879, 4.11859)"><g><path d="M 0.203125 -1.6875 L 0.203125 -2.421875 L 0.5 -2.421875 L 0.5 -1.6875 Z M 0.75 -1.6875 L 0.75 -2.421875 L 1.046875 -2.421875 L 1.046875 -1.6875 Z M 0.75 -1.6875 "/></g></g></g><g fill="#000000" fill-opacity="1"><g transform="translate(154.637039, 4.11859)"><g><path d="M 0.203125 0.546875 L 1.15625 -2.421875 L 1.421875 -2.421875 L 0.46875 0.546875 Z M 0.203125 0.546875 "/></g></g></g><g fill="#000000" fill-opacity="1"><g transform="translate(156.262314, 4.11859)"><g><path d="M 0.203125 -0.1875 L 0.203125 -0.453125 L 1.4375 -1.03125 L 1.4375 -1.046875 L 0.203125 -1.625 L 0.203125 -1.890625 L 1.71875 -1.203125 L 1.71875 -0.875 Z M 0.203125 -0.1875 "/></g></g></g></g></g><g clip-path="url(#9c92d52296)"><g transform="matrix(1, 0, 0, 1, 0, 0.00000000000003908)"><g clip-path="url(#8aeb65030e)"><g clip-path="url(#0bc2b5490d)"><g clip-path="url(#f2fca41b6f)"><g transform="matrix(1, 0, 0, 1, 0, 0.00000000000003908)"><g clip-path="url(#2512e0b267)"><g clip-path="url(#7fd0b40f5e)"><g clip-path="url(#194d9674e6)"><path fill="url(#6780f24778)" d="M 0.417969 0.375 L 0.417969 767.242188 L 767.285156 767.242188 L 767.285156 0.375 Z M 0.417969 0.375 " fill-rule="nonzero"/></g></g></g></g></g></g></g></g></g></g></g></svg>